<svg xmlns="http://www.w3.org/2000/svg" width="434" height="44" viewBox="0 0 434 44" fill="none"><rect width="434" height="44" rx="22" fill="#00E7F9" fill-opacity="0.16"></rect><path d="M51.7449 29.2C50.7449 29.2 49.8583 29 49.0849 28.6C48.3116 28.1867 47.7116 27.6067 47.2849 26.86C46.8716 26.1133 46.6649 25.2533 46.6649 24.28V19.72C46.6649 18.76 46.8783 17.9133 47.3049 17.18C47.7316 16.4333 48.3249 15.86 49.0849 15.46C49.8583 15.0467 50.7449 14.84 51.7449 14.84C52.7583 14.84 53.6449 15.0467 54.4049 15.46C55.1783 15.86 55.7783 16.4333 56.2049 17.18C56.6316 17.9133 56.8449 18.76 56.8449 19.72V24.28C56.8449 25.2533 56.6316 26.1133 56.2049 26.86C55.7783 27.6067 55.1783 28.1867 54.4049 28.6C53.6449 29 52.7583 29.2 51.7449 29.2ZM51.7449 27.2C52.5849 27.2 53.2583 26.94 53.7649 26.42C54.2716 25.9 54.5249 25.2133 54.5249 24.36V19.7C54.5249 18.8333 54.2716 18.14 53.7649 17.62C53.2583 17.1 52.5849 16.84 51.7449 16.84C50.9183 16.84 50.2516 17.1 49.7449 17.62C49.2383 18.14 48.9849 18.8333 48.9849 19.7V24.36C48.9849 25.2133 49.2383 25.9 49.7449 26.42C50.2516 26.94 50.9183 27.2 51.7449 27.2ZM67.8668 21.42C68.1068 22.1 68.2268 22.9333 68.2268 23.92C68.2268 24.8667 68.1135 25.68 67.8868 26.36C67.5935 27.24 67.1201 27.9267 66.4668 28.42C65.8268 28.9133 65.0135 29.16 64.0268 29.16C63.0801 29.16 62.3201 28.82 61.7468 28.14C61.7201 28.1133 61.6935 28.1067 61.6668 28.12C61.6401 28.1333 61.6268 28.16 61.6268 28.2V32.54C61.6268 32.6067 61.6001 32.66 61.5468 32.7C61.5068 32.7533 61.4535 32.78 61.3868 32.78H59.5468C59.4801 32.78 59.4201 32.7533 59.3668 32.7C59.3268 32.66 59.3068 32.6067 59.3068 32.54V19.02C59.3068 18.9533 59.3268 18.9 59.3668 18.86C59.4201 18.8067 59.4801 18.78 59.5468 18.78H61.3868C61.4535 18.78 61.5068 18.8067 61.5468 18.86C61.6001 18.9 61.6268 18.9533 61.6268 19.02V19.62C61.6268 19.66 61.6401 19.6867 61.6668 19.7C61.6935 19.7133 61.7201 19.7 61.7468 19.66C62.3335 18.9667 63.1001 18.62 64.0468 18.62C64.9935 18.62 65.7935 18.8667 66.4468 19.36C67.1001 19.8533 67.5735 20.54 67.8668 21.42ZM65.2668 26.32C65.6668 25.7067 65.8668 24.8933 65.8668 23.88C65.8668 22.9067 65.7068 22.14 65.3868 21.58C65.0135 20.9267 64.4468 20.6 63.6868 20.6C62.9935 20.6 62.4735 20.92 62.1268 21.56C61.8201 22.08 61.6668 22.8533 61.6668 23.88C61.6668 24.9333 61.8335 25.7333 62.1668 26.28C62.5135 26.8667 63.0135 27.16 63.6668 27.16C64.3735 27.16 64.9068 26.88 65.2668 26.32ZM74.7382 29.16C73.6849 29.16 72.7782 28.8933 72.0182 28.36C71.2715 27.8267 70.7449 27.0867 70.4382 26.14C70.2115 25.42 70.0982 24.66 70.0982 23.86C70.0982 23.0067 70.2049 22.2467 70.4182 21.58C70.7249 20.6467 71.2582 19.92 72.0182 19.4C72.7782 18.88 73.6915 18.62 74.7582 18.62C75.7715 18.62 76.6449 18.88 77.3782 19.4C78.1249 19.92 78.6515 20.64 78.9582 21.56C79.1982 22.2 79.3182 22.96 79.3182 23.84C79.3182 24.68 79.2049 25.44 78.9782 26.12C78.6715 27.0667 78.1449 27.8133 77.3982 28.36C76.6515 28.8933 75.7649 29.16 74.7382 29.16ZM74.7382 27.16C75.2315 27.16 75.6515 27.02 75.9982 26.74C76.3582 26.46 76.6182 26.0667 76.7782 25.56C76.9115 25.12 76.9782 24.56 76.9782 23.88C76.9782 23.16 76.9115 22.6 76.7782 22.2C76.6315 21.6933 76.3782 21.3067 76.0182 21.04C75.6582 20.76 75.2182 20.62 74.6982 20.62C74.2049 20.62 73.7782 20.76 73.4182 21.04C73.0582 21.3067 72.7982 21.6933 72.6382 22.2C72.5049 22.6667 72.4382 23.2267 72.4382 23.88C72.4382 24.5333 72.5049 25.0933 72.6382 25.56C72.7849 26.0667 73.0382 26.46 73.3982 26.74C73.7715 27.02 74.2182 27.16 74.7382 27.16ZM86.2715 18.66C86.6982 18.66 87.0715 18.7467 87.3915 18.92C87.4982 18.9733 87.5382 19.0733 87.5115 19.22L87.1715 21.02C87.1582 21.18 87.0648 21.2267 86.8915 21.16C86.6915 21.0933 86.4582 21.06 86.1915 21.06C86.0182 21.06 85.8848 21.0667 85.7915 21.08C85.2315 21.1067 84.7648 21.3067 84.3915 21.68C84.0182 22.04 83.8315 22.5133 83.8315 23.1V28.76C83.8315 28.8267 83.8048 28.8867 83.7515 28.94C83.7115 28.98 83.6582 29 83.5915 29H81.7515C81.6848 29 81.6248 28.98 81.5715 28.94C81.5315 28.8867 81.5115 28.8267 81.5115 28.76V19.02C81.5115 18.9533 81.5315 18.9 81.5715 18.86C81.6248 18.8067 81.6848 18.78 81.7515 18.78H83.5915C83.6582 18.78 83.7115 18.8067 83.7515 18.86C83.8048 18.9 83.8315 18.9533 83.8315 19.02V19.92C83.8315 19.9733 83.8382 20.0067 83.8515 20.02C83.8782 20.02 83.9048 20 83.9315 19.96C84.4915 19.0933 85.2715 18.66 86.2715 18.66ZM94.6268 20.42C94.6268 20.4867 94.6001 20.5467 94.5468 20.6C94.5068 20.64 94.4535 20.66 94.3868 20.66H92.3468C92.2801 20.66 92.2468 20.6933 92.2468 20.76V25.58C92.2468 26.0867 92.3535 26.4533 92.5668 26.68C92.7935 26.9067 93.1468 27.02 93.6268 27.02H94.2268C94.2935 27.02 94.3468 27.0467 94.3868 27.1C94.4401 27.14 94.4668 27.1933 94.4668 27.26V28.76C94.4668 28.9067 94.3868 28.9933 94.2268 29.02L93.1868 29.04C92.1335 29.04 91.3468 28.86 90.8268 28.5C90.3068 28.14 90.0401 27.46 90.0268 26.46V20.76C90.0268 20.6933 89.9935 20.66 89.9268 20.66H88.7868C88.7201 20.66 88.6601 20.64 88.6068 20.6C88.5668 20.5467 88.5468 20.4867 88.5468 20.42V19.02C88.5468 18.9533 88.5668 18.9 88.6068 18.86C88.6601 18.8067 88.7201 18.78 88.7868 18.78H89.9268C89.9935 18.78 90.0268 18.7467 90.0268 18.68V16.34C90.0268 16.2733 90.0468 16.22 90.0868 16.18C90.1401 16.1267 90.2001 16.1 90.2668 16.1H92.0068C92.0735 16.1 92.1268 16.1267 92.1668 16.18C92.2201 16.22 92.2468 16.2733 92.2468 16.34V18.68C92.2468 18.7467 92.2801 18.78 92.3468 18.78H94.3868C94.4535 18.78 94.5068 18.8067 94.5468 18.86C94.6001 18.9 94.6268 18.9533 94.6268 19.02V20.42ZM102.727 19.02C102.727 18.9533 102.747 18.9 102.787 18.86C102.841 18.8067 102.901 18.78 102.967 18.78H104.787C104.854 18.78 104.907 18.8067 104.947 18.86C105.001 18.9 105.027 18.9533 105.027 19.02V28.76C105.027 28.8267 105.001 28.8867 104.947 28.94C104.907 28.98 104.854 29 104.787 29H102.967C102.901 29 102.841 28.98 102.787 28.94C102.747 28.8867 102.727 28.8267 102.727 28.76V28.12C102.727 28.08 102.714 28.0533 102.687 28.04C102.661 28.0267 102.634 28.04 102.607 28.08C102.061 28.7867 101.241 29.14 100.147 29.14C99.1339 29.14 98.2806 28.8467 97.5873 28.26C96.9073 27.6733 96.5673 26.84 96.5673 25.76V19.02C96.5673 18.9533 96.5873 18.9 96.6273 18.86C96.6806 18.8067 96.7406 18.78 96.8073 18.78H98.6473C98.7139 18.78 98.7673 18.8067 98.8073 18.86C98.8606 18.9 98.8873 18.9533 98.8873 19.02V25.1C98.8873 25.7267 99.0473 26.2267 99.3673 26.6C99.7006 26.9733 100.161 27.16 100.747 27.16C101.347 27.16 101.827 26.9733 102.187 26.6C102.547 26.2267 102.727 25.7267 102.727 25.1V19.02ZM112.408 18.62C113.488 18.62 114.348 18.94 114.988 19.58C115.641 20.22 115.968 21.0933 115.968 22.2V28.76C115.968 28.8267 115.941 28.8867 115.888 28.94C115.848 28.98 115.794 29 115.728 29H113.888C113.821 29 113.761 28.98 113.708 28.94C113.668 28.8867 113.648 28.8267 113.648 28.76V22.68C113.648 22.0667 113.474 21.5733 113.128 21.2C112.781 20.8133 112.321 20.62 111.748 20.62C111.174 20.62 110.708 20.8067 110.348 21.18C110.001 21.5533 109.828 22.0467 109.828 22.66V28.76C109.828 28.8267 109.801 28.8867 109.748 28.94C109.708 28.98 109.654 29 109.588 29H107.748C107.681 29 107.621 28.98 107.568 28.94C107.528 28.8867 107.508 28.8267 107.508 28.76V19.02C107.508 18.9533 107.528 18.9 107.568 18.86C107.621 18.8067 107.681 18.78 107.748 18.78H109.588C109.654 18.78 109.708 18.8067 109.748 18.86C109.801 18.9 109.828 18.9533 109.828 19.02V19.66C109.828 19.7 109.841 19.7267 109.868 19.74C109.894 19.7533 109.914 19.74 109.928 19.7C110.474 18.98 111.301 18.62 112.408 18.62ZM119.706 17.38C119.293 17.38 118.953 17.2467 118.686 16.98C118.42 16.7133 118.286 16.3733 118.286 15.96C118.286 15.5467 118.42 15.2067 118.686 14.94C118.953 14.6733 119.293 14.54 119.706 14.54C120.12 14.54 120.46 14.6733 120.726 14.94C120.993 15.2067 121.126 15.5467 121.126 15.96C121.126 16.3733 120.993 16.7133 120.726 16.98C120.46 17.2467 120.12 17.38 119.706 17.38ZM118.746 29C118.68 29 118.62 28.98 118.566 28.94C118.526 28.8867 118.506 28.8267 118.506 28.76V19C118.506 18.9333 118.526 18.88 118.566 18.84C118.62 18.7867 118.68 18.76 118.746 18.76H120.586C120.653 18.76 120.706 18.7867 120.746 18.84C120.8 18.88 120.826 18.9333 120.826 19V28.76C120.826 28.8267 120.8 28.8867 120.746 28.94C120.706 28.98 120.653 29 120.586 29H118.746ZM129.824 15.24C129.824 15.1733 129.844 15.12 129.884 15.08C129.937 15.0267 129.997 15 130.064 15H131.904C131.971 15 132.024 15.0267 132.064 15.08C132.117 15.12 132.144 15.1733 132.144 15.24V28.76C132.144 28.8267 132.117 28.8867 132.064 28.94C132.024 28.98 131.971 29 131.904 29H130.064C129.997 29 129.937 28.98 129.884 28.94C129.844 28.8867 129.824 28.8267 129.824 28.76V28.16C129.824 28.12 129.811 28.0933 129.784 28.08C129.757 28.0667 129.731 28.08 129.704 28.12C129.117 28.8133 128.351 29.16 127.404 29.16C126.457 29.16 125.657 28.9133 125.004 28.42C124.351 27.9267 123.877 27.24 123.584 26.36C123.344 25.6133 123.224 24.78 123.224 23.86C123.224 22.9133 123.337 22.1 123.564 21.42C123.857 20.54 124.331 19.8533 124.984 19.36C125.637 18.8667 126.457 18.62 127.444 18.62C128.364 18.62 129.117 18.9533 129.704 19.62C129.731 19.6467 129.757 19.66 129.784 19.66C129.811 19.6467 129.824 19.62 129.824 19.58V15.24ZM129.344 26.2C129.651 25.6533 129.804 24.88 129.804 23.88C129.804 22.84 129.637 22.0467 129.304 21.5C128.944 20.9133 128.437 20.62 127.784 20.62C127.104 20.62 126.571 20.9 126.184 21.46C125.784 22.0467 125.584 22.86 125.584 23.9C125.584 24.8333 125.744 25.6 126.064 26.2C126.437 26.84 127.004 27.16 127.764 27.16C128.444 27.16 128.971 26.84 129.344 26.2ZM138.556 18.62C139.396 18.62 140.136 18.7667 140.776 19.06C141.416 19.3533 141.909 19.76 142.256 20.28C142.603 20.7867 142.776 21.3667 142.776 22.02V28.76C142.776 28.8267 142.749 28.8867 142.696 28.94C142.656 28.98 142.603 29 142.536 29H140.696C140.629 29 140.569 28.98 140.516 28.94C140.476 28.8867 140.456 28.8267 140.456 28.76V28.12C140.456 28.08 140.443 28.06 140.416 28.06C140.389 28.0467 140.363 28.0533 140.336 28.08C139.683 28.8 138.736 29.16 137.496 29.16C136.496 29.16 135.669 28.9067 135.016 28.4C134.376 27.8933 134.056 27.14 134.056 26.14C134.056 25.1 134.416 24.2933 135.136 23.72C135.869 23.1333 136.896 22.84 138.216 22.84H140.356C140.423 22.84 140.456 22.8067 140.456 22.74V22.26C140.456 21.74 140.303 21.34 139.996 21.06C139.689 20.7667 139.229 20.62 138.616 20.62C138.109 20.62 137.696 20.7133 137.376 20.9C137.069 21.0733 136.876 21.32 136.796 21.64C136.756 21.8 136.663 21.8667 136.516 21.84L134.576 21.6C134.509 21.5867 134.449 21.5667 134.396 21.54C134.356 21.5 134.343 21.4533 134.356 21.4C134.463 20.5867 134.896 19.92 135.656 19.4C136.429 18.88 137.396 18.62 138.556 18.62ZM138.076 27.32C138.729 27.32 139.289 27.1467 139.756 26.8C140.223 26.4533 140.456 26.0133 140.456 25.48V24.54C140.456 24.4733 140.423 24.44 140.356 24.44H138.676C137.969 24.44 137.409 24.5733 136.996 24.84C136.596 25.1067 136.396 25.4867 136.396 25.98C136.396 26.4067 136.549 26.74 136.856 26.98C137.176 27.2067 137.583 27.32 138.076 27.32ZM151.445 15.24C151.445 15.1733 151.465 15.12 151.505 15.08C151.559 15.0267 151.619 15 151.685 15H153.525C153.592 15 153.645 15.0267 153.685 15.08C153.739 15.12 153.765 15.1733 153.765 15.24V28.76C153.765 28.8267 153.739 28.8867 153.685 28.94C153.645 28.98 153.592 29 153.525 29H151.685C151.619 29 151.559 28.98 151.505 28.94C151.465 28.8867 151.445 28.8267 151.445 28.76V28.16C151.445 28.12 151.432 28.0933 151.405 28.08C151.379 28.0667 151.352 28.08 151.325 28.12C150.739 28.8133 149.972 29.16 149.025 29.16C148.079 29.16 147.279 28.9133 146.625 28.42C145.972 27.9267 145.499 27.24 145.205 26.36C144.965 25.6133 144.845 24.78 144.845 23.86C144.845 22.9133 144.959 22.1 145.185 21.42C145.479 20.54 145.952 19.8533 146.605 19.36C147.259 18.8667 148.079 18.62 149.065 18.62C149.985 18.62 150.739 18.9533 151.325 19.62C151.352 19.6467 151.379 19.66 151.405 19.66C151.432 19.6467 151.445 19.62 151.445 19.58V15.24ZM150.965 26.2C151.272 25.6533 151.425 24.88 151.425 23.88C151.425 22.84 151.259 22.0467 150.925 21.5C150.565 20.9133 150.059 20.62 149.405 20.62C148.725 20.62 148.192 20.9 147.805 21.46C147.405 22.0467 147.205 22.86 147.205 23.9C147.205 24.8333 147.365 25.6 147.685 26.2C148.059 26.84 148.625 27.16 149.385 27.16C150.065 27.16 150.592 26.84 150.965 26.2ZM164.897 22.74C164.95 23.0733 164.977 23.4467 164.977 23.86L164.957 24.48C164.957 24.64 164.877 24.72 164.717 24.72H158.457C158.39 24.72 158.357 24.7533 158.357 24.82C158.397 25.26 158.457 25.56 158.537 25.72C158.857 26.68 159.637 27.1667 160.877 27.18C161.784 27.18 162.504 26.8067 163.037 26.06C163.09 25.98 163.157 25.94 163.237 25.94C163.29 25.94 163.337 25.96 163.377 26L164.617 27.02C164.737 27.1133 164.757 27.22 164.677 27.34C164.264 27.9267 163.71 28.38 163.017 28.7C162.337 29.02 161.577 29.18 160.737 29.18C159.697 29.18 158.81 28.9467 158.077 28.48C157.357 28.0133 156.83 27.36 156.497 26.52C156.19 25.8 156.037 24.8 156.037 23.52C156.037 22.7467 156.117 22.12 156.277 21.64C156.544 20.7067 157.044 19.9733 157.777 19.44C158.524 18.8933 159.417 18.62 160.457 18.62C163.084 18.62 164.564 19.9933 164.897 22.74ZM160.457 20.62C159.964 20.62 159.55 20.7467 159.217 21C158.897 21.24 158.67 21.58 158.537 22.02C158.457 22.2467 158.404 22.54 158.377 22.9C158.35 22.9667 158.377 23 158.457 23H162.517C162.584 23 162.617 22.9667 162.617 22.9C162.59 22.5667 162.55 22.3133 162.497 22.14C162.377 21.66 162.137 21.2867 161.777 21.02C161.43 20.7533 160.99 20.62 160.457 20.62ZM179.721 22.74C179.775 23.0733 179.801 23.4467 179.801 23.86L179.781 24.48C179.781 24.64 179.701 24.72 179.541 24.72H173.281C173.215 24.72 173.181 24.7533 173.181 24.82C173.221 25.26 173.281 25.56 173.361 25.72C173.681 26.68 174.461 27.1667 175.701 27.18C176.608 27.18 177.328 26.8067 177.861 26.06C177.915 25.98 177.981 25.94 178.061 25.94C178.115 25.94 178.161 25.96 178.201 26L179.441 27.02C179.561 27.1133 179.581 27.22 179.501 27.34C179.088 27.9267 178.535 28.38 177.841 28.7C177.161 29.02 176.401 29.18 175.561 29.18C174.521 29.18 173.635 28.9467 172.901 28.48C172.181 28.0133 171.655 27.36 171.321 26.52C171.015 25.8 170.861 24.8 170.861 23.52C170.861 22.7467 170.941 22.12 171.101 21.64C171.368 20.7067 171.868 19.9733 172.601 19.44C173.348 18.8933 174.241 18.62 175.281 18.62C177.908 18.62 179.388 19.9933 179.721 22.74ZM175.281 20.62C174.788 20.62 174.375 20.7467 174.041 21C173.721 21.24 173.495 21.58 173.361 22.02C173.281 22.2467 173.228 22.54 173.201 22.9C173.175 22.9667 173.201 23 173.281 23H177.341C177.408 23 177.441 22.9667 177.441 22.9C177.415 22.5667 177.375 22.3133 177.321 22.14C177.201 21.66 176.961 21.2867 176.601 21.02C176.255 20.7533 175.815 20.62 175.281 20.62ZM185.565 29.12C184.725 29.12 183.985 29 183.345 28.76C182.719 28.5067 182.232 28.1667 181.885 27.74C181.539 27.3 181.365 26.8133 181.365 26.28V26.1C181.365 26.0333 181.385 25.98 181.425 25.94C181.479 25.8867 181.539 25.86 181.605 25.86H183.365C183.432 25.86 183.485 25.8867 183.525 25.94C183.579 25.98 183.605 26.0333 183.605 26.1V26.14C183.605 26.4733 183.785 26.7667 184.145 27.02C184.519 27.26 184.985 27.38 185.545 27.38C186.079 27.38 186.512 27.2733 186.845 27.06C187.179 26.8333 187.345 26.5533 187.345 26.22C187.345 25.9133 187.205 25.6867 186.925 25.54C186.659 25.38 186.219 25.2133 185.605 25.04L184.845 24.8C184.165 24.6 183.592 24.3867 183.125 24.16C182.659 23.9333 182.265 23.6267 181.945 23.24C181.625 22.84 181.465 22.3333 181.465 21.72C181.465 20.7867 181.832 20.0467 182.565 19.5C183.299 18.94 184.265 18.66 185.465 18.66C186.279 18.66 186.992 18.7933 187.605 19.06C188.219 19.3133 188.692 19.6733 189.025 20.14C189.359 20.5933 189.525 21.1133 189.525 21.7C189.525 21.7667 189.499 21.8267 189.445 21.88C189.405 21.92 189.352 21.94 189.285 21.94H187.585C187.519 21.94 187.459 21.92 187.405 21.88C187.365 21.8267 187.345 21.7667 187.345 21.7C187.345 21.3533 187.172 21.0667 186.825 20.84C186.492 20.6 186.032 20.48 185.445 20.48C184.925 20.48 184.499 20.58 184.165 20.78C183.845 20.9667 183.685 21.2333 183.685 21.58C183.685 21.9 183.839 22.1467 184.145 22.32C184.465 22.48 184.992 22.66 185.725 22.86L186.165 22.98C186.872 23.1933 187.465 23.4133 187.945 23.64C188.425 23.8533 188.832 24.16 189.165 24.56C189.499 24.9467 189.665 25.4533 189.665 26.08C189.665 27.0267 189.292 27.7733 188.545 28.32C187.799 28.8533 186.805 29.12 185.565 29.12ZM200.289 21.42C200.529 22.1 200.649 22.9333 200.649 23.92C200.649 24.8667 200.535 25.68 200.309 26.36C200.015 27.24 199.542 27.9267 198.889 28.42C198.249 28.9133 197.435 29.16 196.449 29.16C195.502 29.16 194.742 28.82 194.169 28.14C194.142 28.1133 194.115 28.1067 194.089 28.12C194.062 28.1333 194.049 28.16 194.049 28.2V32.54C194.049 32.6067 194.022 32.66 193.969 32.7C193.929 32.7533 193.875 32.78 193.809 32.78H191.969C191.902 32.78 191.842 32.7533 191.789 32.7C191.749 32.66 191.729 32.6067 191.729 32.54V19.02C191.729 18.9533 191.749 18.9 191.789 18.86C191.842 18.8067 191.902 18.78 191.969 18.78H193.809C193.875 18.78 193.929 18.8067 193.969 18.86C194.022 18.9 194.049 18.9533 194.049 19.02V19.62C194.049 19.66 194.062 19.6867 194.089 19.7C194.115 19.7133 194.142 19.7 194.169 19.66C194.755 18.9667 195.522 18.62 196.469 18.62C197.415 18.62 198.215 18.8667 198.869 19.36C199.522 19.8533 199.995 20.54 200.289 21.42ZM197.689 26.32C198.089 25.7067 198.289 24.8933 198.289 23.88C198.289 22.9067 198.129 22.14 197.809 21.58C197.435 20.9267 196.869 20.6 196.109 20.6C195.415 20.6 194.895 20.92 194.549 21.56C194.242 22.08 194.089 22.8533 194.089 23.88C194.089 24.9333 194.255 25.7333 194.589 26.28C194.935 26.8667 195.435 27.16 196.089 27.16C196.795 27.16 197.329 26.88 197.689 26.32ZM211.44 22.74C211.493 23.0733 211.52 23.4467 211.52 23.86L211.5 24.48C211.5 24.64 211.42 24.72 211.26 24.72H205C204.933 24.72 204.9 24.7533 204.9 24.82C204.94 25.26 205 25.56 205.08 25.72C205.4 26.68 206.18 27.1667 207.42 27.18C208.327 27.18 209.047 26.8067 209.58 26.06C209.633 25.98 209.7 25.94 209.78 25.94C209.833 25.94 209.88 25.96 209.92 26L211.16 27.02C211.28 27.1133 211.3 27.22 211.22 27.34C210.807 27.9267 210.253 28.38 209.56 28.7C208.88 29.02 208.12 29.18 207.28 29.18C206.24 29.18 205.353 28.9467 204.62 28.48C203.9 28.0133 203.373 27.36 203.04 26.52C202.733 25.8 202.58 24.8 202.58 23.52C202.58 22.7467 202.66 22.12 202.82 21.64C203.087 20.7067 203.587 19.9733 204.32 19.44C205.067 18.8933 205.96 18.62 207 18.62C209.627 18.62 211.107 19.9933 211.44 22.74ZM207 20.62C206.507 20.62 206.093 20.7467 205.76 21C205.44 21.24 205.213 21.58 205.08 22.02C205 22.2467 204.947 22.54 204.92 22.9C204.893 22.9667 204.92 23 205 23H209.06C209.127 23 209.16 22.9667 209.16 22.9C209.133 22.5667 209.093 22.3133 209.04 22.14C208.92 21.66 208.68 21.2867 208.32 21.02C207.973 20.7533 207.533 20.62 207 20.62ZM217.9 29.16C216.874 29.16 215.987 28.9 215.24 28.38C214.494 27.8467 213.974 27.1333 213.68 26.24C213.467 25.64 213.36 24.84 213.36 23.84C213.36 22.88 213.467 22.0933 213.68 21.48C213.96 20.6 214.474 19.9067 215.22 19.4C215.98 18.88 216.874 18.62 217.9 18.62C218.94 18.62 219.847 18.88 220.62 19.4C221.394 19.92 221.907 20.5733 222.16 21.36C222.227 21.5733 222.274 21.7867 222.3 22V22.04C222.3 22.1733 222.227 22.2533 222.08 22.28L220.28 22.54H220.24C220.12 22.54 220.04 22.4733 220 22.34C220 22.2733 219.994 22.22 219.98 22.18C219.954 22.0733 219.927 21.98 219.9 21.9C219.78 21.5267 219.54 21.22 219.18 20.98C218.82 20.74 218.394 20.62 217.9 20.62C217.394 20.62 216.96 20.7533 216.6 21.02C216.254 21.2733 216.02 21.6267 215.9 22.08C215.767 22.5067 215.7 23.1 215.7 23.86C215.7 24.5933 215.76 25.1867 215.88 25.64C216.014 26.1067 216.254 26.48 216.6 26.76C216.947 27.0267 217.38 27.16 217.9 27.16C218.407 27.16 218.84 27.0333 219.2 26.78C219.574 26.5133 219.814 26.16 219.92 25.72C219.934 25.6933 219.94 25.66 219.94 25.62C219.954 25.6067 219.96 25.5867 219.96 25.56C220 25.4 220.094 25.3333 220.24 25.36L222.04 25.64C222.107 25.6533 222.16 25.6867 222.2 25.74C222.254 25.78 222.274 25.84 222.26 25.92C222.22 26.1333 222.187 26.2867 222.16 26.38C221.907 27.2333 221.394 27.9133 220.62 28.42C219.847 28.9133 218.94 29.16 217.9 29.16ZM225.585 17.38C225.172 17.38 224.832 17.2467 224.565 16.98C224.299 16.7133 224.165 16.3733 224.165 15.96C224.165 15.5467 224.299 15.2067 224.565 14.94C224.832 14.6733 225.172 14.54 225.585 14.54C225.999 14.54 226.339 14.6733 226.605 14.94C226.872 15.2067 227.005 15.5467 227.005 15.96C227.005 16.3733 226.872 16.7133 226.605 16.98C226.339 17.2467 225.999 17.38 225.585 17.38ZM224.625 29C224.559 29 224.499 28.98 224.445 28.94C224.405 28.8867 224.385 28.8267 224.385 28.76V19C224.385 18.9333 224.405 18.88 224.445 18.84C224.499 18.7867 224.559 18.76 224.625 18.76H226.465C226.532 18.76 226.585 18.7867 226.625 18.84C226.679 18.88 226.705 18.9333 226.705 19V28.76C226.705 28.8267 226.679 28.8867 226.625 28.94C226.585 28.98 226.532 29 226.465 29H224.625ZM233.263 18.62C234.103 18.62 234.843 18.7667 235.483 19.06C236.123 19.3533 236.616 19.76 236.963 20.28C237.31 20.7867 237.483 21.3667 237.483 22.02V28.76C237.483 28.8267 237.456 28.8867 237.403 28.94C237.363 28.98 237.31 29 237.243 29H235.403C235.336 29 235.276 28.98 235.223 28.94C235.183 28.8867 235.163 28.8267 235.163 28.76V28.12C235.163 28.08 235.15 28.06 235.123 28.06C235.096 28.0467 235.07 28.0533 235.043 28.08C234.39 28.8 233.443 29.16 232.203 29.16C231.203 29.16 230.376 28.9067 229.723 28.4C229.083 27.8933 228.763 27.14 228.763 26.14C228.763 25.1 229.123 24.2933 229.843 23.72C230.576 23.1333 231.603 22.84 232.923 22.84H235.063C235.13 22.84 235.163 22.8067 235.163 22.74V22.26C235.163 21.74 235.01 21.34 234.703 21.06C234.396 20.7667 233.936 20.62 233.323 20.62C232.816 20.62 232.403 20.7133 232.083 20.9C231.776 21.0733 231.583 21.32 231.503 21.64C231.463 21.8 231.37 21.8667 231.223 21.84L229.283 21.6C229.216 21.5867 229.156 21.5667 229.103 21.54C229.063 21.5 229.05 21.4533 229.063 21.4C229.17 20.5867 229.603 19.92 230.363 19.4C231.136 18.88 232.103 18.62 233.263 18.62ZM232.783 27.32C233.436 27.32 233.996 27.1467 234.463 26.8C234.93 26.4533 235.163 26.0133 235.163 25.48V24.54C235.163 24.4733 235.13 24.44 235.063 24.44H233.383C232.676 24.44 232.116 24.5733 231.703 24.84C231.303 25.1067 231.103 25.4867 231.103 25.98C231.103 26.4067 231.256 26.74 231.563 26.98C231.883 27.2067 232.29 27.32 232.783 27.32ZM240.052 29C239.986 29 239.926 28.98 239.872 28.94C239.832 28.8867 239.812 28.8267 239.812 28.76V15.24C239.812 15.1733 239.832 15.12 239.872 15.08C239.926 15.0267 239.986 15 240.052 15H241.892C241.959 15 242.012 15.0267 242.052 15.08C242.106 15.12 242.132 15.1733 242.132 15.24V28.76C242.132 28.8267 242.106 28.8867 242.052 28.94C242.012 28.98 241.959 29 241.892 29H240.052ZM257.261 21.42C257.501 22.1 257.621 22.9333 257.621 23.92C257.621 24.8667 257.508 25.68 257.281 26.36C256.988 27.24 256.515 27.9267 255.861 28.42C255.221 28.9133 254.408 29.16 253.421 29.16C252.475 29.16 251.715 28.82 251.141 28.14C251.115 28.1133 251.088 28.1067 251.061 28.12C251.035 28.1333 251.021 28.16 251.021 28.2V32.54C251.021 32.6067 250.995 32.66 250.941 32.7C250.901 32.7533 250.848 32.78 250.781 32.78H248.941C248.875 32.78 248.815 32.7533 248.761 32.7C248.721 32.66 248.701 32.6067 248.701 32.54V19.02C248.701 18.9533 248.721 18.9 248.761 18.86C248.815 18.8067 248.875 18.78 248.941 18.78H250.781C250.848 18.78 250.901 18.8067 250.941 18.86C250.995 18.9 251.021 18.9533 251.021 19.02V19.62C251.021 19.66 251.035 19.6867 251.061 19.7C251.088 19.7133 251.115 19.7 251.141 19.66C251.728 18.9667 252.495 18.62 253.441 18.62C254.388 18.62 255.188 18.8667 255.841 19.36C256.495 19.8533 256.968 20.54 257.261 21.42ZM254.661 26.32C255.061 25.7067 255.261 24.8933 255.261 23.88C255.261 22.9067 255.101 22.14 254.781 21.58C254.408 20.9267 253.841 20.6 253.081 20.6C252.388 20.6 251.868 20.92 251.521 21.56C251.215 22.08 251.061 22.8533 251.061 23.88C251.061 24.9333 251.228 25.7333 251.561 26.28C251.908 26.8667 252.408 27.16 253.061 27.16C253.768 27.16 254.301 26.88 254.661 26.32ZM263.771 18.62C264.611 18.62 265.351 18.7667 265.991 19.06C266.631 19.3533 267.124 19.76 267.471 20.28C267.818 20.7867 267.991 21.3667 267.991 22.02V28.76C267.991 28.8267 267.964 28.8867 267.911 28.94C267.871 28.98 267.818 29 267.751 29H265.911C265.844 29 265.784 28.98 265.731 28.94C265.691 28.8867 265.671 28.8267 265.671 28.76V28.12C265.671 28.08 265.658 28.06 265.631 28.06C265.604 28.0467 265.578 28.0533 265.551 28.08C264.898 28.8 263.951 29.16 262.711 29.16C261.711 29.16 260.884 28.9067 260.231 28.4C259.591 27.8933 259.271 27.14 259.271 26.14C259.271 25.1 259.631 24.2933 260.351 23.72C261.084 23.1333 262.111 22.84 263.431 22.84H265.571C265.638 22.84 265.671 22.8067 265.671 22.74V22.26C265.671 21.74 265.518 21.34 265.211 21.06C264.904 20.7667 264.444 20.62 263.831 20.62C263.324 20.62 262.911 20.7133 262.591 20.9C262.284 21.0733 262.091 21.32 262.011 21.64C261.971 21.8 261.878 21.8667 261.731 21.84L259.791 21.6C259.724 21.5867 259.664 21.5667 259.611 21.54C259.571 21.5 259.558 21.4533 259.571 21.4C259.678 20.5867 260.111 19.92 260.871 19.4C261.644 18.88 262.611 18.62 263.771 18.62ZM263.291 27.32C263.944 27.32 264.504 27.1467 264.971 26.8C265.438 26.4533 265.671 26.0133 265.671 25.48V24.54C265.671 24.4733 265.638 24.44 265.571 24.44H263.891C263.184 24.44 262.624 24.5733 262.211 24.84C261.811 25.1067 261.611 25.4867 261.611 25.98C261.611 26.4067 261.764 26.74 262.071 26.98C262.391 27.2067 262.798 27.32 263.291 27.32ZM275.08 18.66C275.507 18.66 275.88 18.7467 276.2 18.92C276.307 18.9733 276.347 19.0733 276.32 19.22L275.98 21.02C275.967 21.18 275.873 21.2267 275.7 21.16C275.5 21.0933 275.267 21.06 275 21.06C274.827 21.06 274.693 21.0667 274.6 21.08C274.04 21.1067 273.573 21.3067 273.2 21.68C272.827 22.04 272.64 22.5133 272.64 23.1V28.76C272.64 28.8267 272.613 28.8867 272.56 28.94C272.52 28.98 272.467 29 272.4 29H270.56C270.493 29 270.433 28.98 270.38 28.94C270.34 28.8867 270.32 28.8267 270.32 28.76V19.02C270.32 18.9533 270.34 18.9 270.38 18.86C270.433 18.8067 270.493 18.78 270.56 18.78H272.4C272.467 18.78 272.52 18.8067 272.56 18.86C272.613 18.9 272.64 18.9533 272.64 19.02V19.92C272.64 19.9733 272.647 20.0067 272.66 20.02C272.687 20.02 272.713 20 272.74 19.96C273.3 19.0933 274.08 18.66 275.08 18.66ZM281.642 18.62C282.482 18.62 283.222 18.7667 283.862 19.06C284.502 19.3533 284.995 19.76 285.342 20.28C285.689 20.7867 285.862 21.3667 285.862 22.02V28.76C285.862 28.8267 285.835 28.8867 285.782 28.94C285.742 28.98 285.689 29 285.622 29H283.782C283.715 29 283.655 28.98 283.602 28.94C283.562 28.8867 283.542 28.8267 283.542 28.76V28.12C283.542 28.08 283.529 28.06 283.502 28.06C283.475 28.0467 283.449 28.0533 283.422 28.08C282.769 28.8 281.822 29.16 280.582 29.16C279.582 29.16 278.755 28.9067 278.102 28.4C277.462 27.8933 277.142 27.14 277.142 26.14C277.142 25.1 277.502 24.2933 278.222 23.72C278.955 23.1333 279.982 22.84 281.302 22.84H283.442C283.509 22.84 283.542 22.8067 283.542 22.74V22.26C283.542 21.74 283.389 21.34 283.082 21.06C282.775 20.7667 282.315 20.62 281.702 20.62C281.195 20.62 280.782 20.7133 280.462 20.9C280.155 21.0733 279.962 21.32 279.882 21.64C279.842 21.8 279.749 21.8667 279.602 21.84L277.662 21.6C277.595 21.5867 277.535 21.5667 277.482 21.54C277.442 21.5 277.429 21.4533 277.442 21.4C277.549 20.5867 277.982 19.92 278.742 19.4C279.515 18.88 280.482 18.62 281.642 18.62ZM281.162 27.32C281.815 27.32 282.375 27.1467 282.842 26.8C283.309 26.4533 283.542 26.0133 283.542 25.48V24.54C283.542 24.4733 283.509 24.44 283.442 24.44H281.762C281.055 24.44 280.495 24.5733 280.082 24.84C279.682 25.1067 279.482 25.4867 279.482 25.98C279.482 26.4067 279.635 26.74 279.942 26.98C280.262 27.2067 280.669 27.32 281.162 27.32ZM300.815 22.74C300.868 23.0733 300.895 23.4467 300.895 23.86L300.875 24.48C300.875 24.64 300.795 24.72 300.635 24.72H294.375C294.308 24.72 294.275 24.7533 294.275 24.82C294.315 25.26 294.375 25.56 294.455 25.72C294.775 26.68 295.555 27.1667 296.795 27.18C297.702 27.18 298.422 26.8067 298.955 26.06C299.008 25.98 299.075 25.94 299.155 25.94C299.208 25.94 299.255 25.96 299.295 26L300.535 27.02C300.655 27.1133 300.675 27.22 300.595 27.34C300.182 27.9267 299.628 28.38 298.935 28.7C298.255 29.02 297.495 29.18 296.655 29.18C295.615 29.18 294.728 28.9467 293.995 28.48C293.275 28.0133 292.748 27.36 292.415 26.52C292.108 25.8 291.955 24.8 291.955 23.52C291.955 22.7467 292.035 22.12 292.195 21.64C292.462 20.7067 292.962 19.9733 293.695 19.44C294.442 18.8933 295.335 18.62 296.375 18.62C299.002 18.62 300.482 19.9933 300.815 22.74ZM296.375 20.62C295.882 20.62 295.468 20.7467 295.135 21C294.815 21.24 294.588 21.58 294.455 22.02C294.375 22.2467 294.322 22.54 294.295 22.9C294.268 22.9667 294.295 23 294.375 23H298.435C298.502 23 298.535 22.9667 298.535 22.9C298.508 22.5667 298.468 22.3133 298.415 22.14C298.295 21.66 298.055 21.2867 297.695 21.02C297.348 20.7533 296.908 20.62 296.375 20.62ZM306.659 29.12C305.819 29.12 305.079 29 304.439 28.76C303.812 28.5067 303.326 28.1667 302.979 27.74C302.632 27.3 302.459 26.8133 302.459 26.28V26.1C302.459 26.0333 302.479 25.98 302.519 25.94C302.572 25.8867 302.632 25.86 302.699 25.86H304.459C304.526 25.86 304.579 25.8867 304.619 25.94C304.672 25.98 304.699 26.0333 304.699 26.1V26.14C304.699 26.4733 304.879 26.7667 305.239 27.02C305.612 27.26 306.079 27.38 306.639 27.38C307.172 27.38 307.606 27.2733 307.939 27.06C308.272 26.8333 308.439 26.5533 308.439 26.22C308.439 25.9133 308.299 25.6867 308.019 25.54C307.752 25.38 307.312 25.2133 306.699 25.04L305.939 24.8C305.259 24.6 304.686 24.3867 304.219 24.16C303.752 23.9333 303.359 23.6267 303.039 23.24C302.719 22.84 302.559 22.3333 302.559 21.72C302.559 20.7867 302.926 20.0467 303.659 19.5C304.392 18.94 305.359 18.66 306.559 18.66C307.372 18.66 308.086 18.7933 308.699 19.06C309.312 19.3133 309.786 19.6733 310.119 20.14C310.452 20.5933 310.619 21.1133 310.619 21.7C310.619 21.7667 310.592 21.8267 310.539 21.88C310.499 21.92 310.446 21.94 310.379 21.94H308.679C308.612 21.94 308.552 21.92 308.499 21.88C308.459 21.8267 308.439 21.7667 308.439 21.7C308.439 21.3533 308.266 21.0667 307.919 20.84C307.586 20.6 307.126 20.48 306.539 20.48C306.019 20.48 305.592 20.58 305.259 20.78C304.939 20.9667 304.779 21.2333 304.779 21.58C304.779 21.9 304.932 22.1467 305.239 22.32C305.559 22.48 306.086 22.66 306.819 22.86L307.259 22.98C307.966 23.1933 308.559 23.4133 309.039 23.64C309.519 23.8533 309.926 24.16 310.259 24.56C310.592 24.9467 310.759 25.4533 310.759 26.08C310.759 27.0267 310.386 27.7733 309.639 28.32C308.892 28.8533 307.899 29.12 306.659 29.12ZM316.327 29.12C315.487 29.12 314.747 29 314.107 28.76C313.48 28.5067 312.994 28.1667 312.647 27.74C312.3 27.3 312.127 26.8133 312.127 26.28V26.1C312.127 26.0333 312.147 25.98 312.187 25.94C312.24 25.8867 312.3 25.86 312.367 25.86H314.127C314.194 25.86 314.247 25.8867 314.287 25.94C314.34 25.98 314.367 26.0333 314.367 26.1V26.14C314.367 26.4733 314.547 26.7667 314.907 27.02C315.28 27.26 315.747 27.38 316.307 27.38C316.84 27.38 317.274 27.2733 317.607 27.06C317.94 26.8333 318.107 26.5533 318.107 26.22C318.107 25.9133 317.967 25.6867 317.687 25.54C317.42 25.38 316.98 25.2133 316.367 25.04L315.607 24.8C314.927 24.6 314.354 24.3867 313.887 24.16C313.42 23.9333 313.027 23.6267 312.707 23.24C312.387 22.84 312.227 22.3333 312.227 21.72C312.227 20.7867 312.594 20.0467 313.327 19.5C314.06 18.94 315.027 18.66 316.227 18.66C317.04 18.66 317.754 18.7933 318.367 19.06C318.98 19.3133 319.454 19.6733 319.787 20.14C320.12 20.5933 320.287 21.1133 320.287 21.7C320.287 21.7667 320.26 21.8267 320.207 21.88C320.167 21.92 320.114 21.94 320.047 21.94H318.347C318.28 21.94 318.22 21.92 318.167 21.88C318.127 21.8267 318.107 21.7667 318.107 21.7C318.107 21.3533 317.934 21.0667 317.587 20.84C317.254 20.6 316.794 20.48 316.207 20.48C315.687 20.48 315.26 20.58 314.927 20.78C314.607 20.9667 314.447 21.2333 314.447 21.58C314.447 21.9 314.6 22.1467 314.907 22.32C315.227 22.48 315.754 22.66 316.487 22.86L316.927 22.98C317.634 23.1933 318.227 23.4133 318.707 23.64C319.187 23.8533 319.594 24.16 319.927 24.56C320.26 24.9467 320.427 25.4533 320.427 26.08C320.427 27.0267 320.054 27.7733 319.307 28.32C318.56 28.8533 317.567 29.12 316.327 29.12ZM326.29 18.62C327.13 18.62 327.87 18.7667 328.51 19.06C329.15 19.3533 329.644 19.76 329.99 20.28C330.337 20.7867 330.51 21.3667 330.51 22.02V28.76C330.51 28.8267 330.484 28.8867 330.43 28.94C330.39 28.98 330.337 29 330.27 29H328.43C328.364 29 328.304 28.98 328.25 28.94C328.21 28.8867 328.19 28.8267 328.19 28.76V28.12C328.19 28.08 328.177 28.06 328.15 28.06C328.124 28.0467 328.097 28.0533 328.07 28.08C327.417 28.8 326.47 29.16 325.23 29.16C324.23 29.16 323.404 28.9067 322.75 28.4C322.11 27.8933 321.79 27.14 321.79 26.14C321.79 25.1 322.15 24.2933 322.87 23.72C323.604 23.1333 324.63 22.84 325.95 22.84H328.09C328.157 22.84 328.19 22.8067 328.19 22.74V22.26C328.19 21.74 328.037 21.34 327.73 21.06C327.424 20.7667 326.964 20.62 326.35 20.62C325.844 20.62 325.43 20.7133 325.11 20.9C324.804 21.0733 324.61 21.32 324.53 21.64C324.49 21.8 324.397 21.8667 324.25 21.84L322.31 21.6C322.244 21.5867 322.184 21.5667 322.13 21.54C322.09 21.5 322.077 21.4533 322.09 21.4C322.197 20.5867 322.63 19.92 323.39 19.4C324.164 18.88 325.13 18.62 326.29 18.62ZM325.81 27.32C326.464 27.32 327.024 27.1467 327.49 26.8C327.957 26.4533 328.19 26.0133 328.19 25.48V24.54C328.19 24.4733 328.157 24.44 328.09 24.44H326.41C325.704 24.44 325.144 24.5733 324.73 24.84C324.33 25.1067 324.13 25.4867 324.13 25.98C324.13 26.4067 324.284 26.74 324.59 26.98C324.91 27.2067 325.317 27.32 325.81 27.32ZM342.264 20.42C342.264 20.4867 342.237 20.5467 342.184 20.6C342.144 20.64 342.09 20.66 342.024 20.66H339.984C339.917 20.66 339.884 20.6933 339.884 20.76V25.58C339.884 26.0867 339.99 26.4533 340.204 26.68C340.43 26.9067 340.784 27.02 341.264 27.02H341.864C341.93 27.02 341.984 27.0467 342.024 27.1C342.077 27.14 342.104 27.1933 342.104 27.26V28.76C342.104 28.9067 342.024 28.9933 341.864 29.02L340.824 29.04C339.77 29.04 338.984 28.86 338.464 28.5C337.944 28.14 337.677 27.46 337.664 26.46V20.76C337.664 20.6933 337.63 20.66 337.564 20.66H336.424C336.357 20.66 336.297 20.64 336.244 20.6C336.204 20.5467 336.184 20.4867 336.184 20.42V19.02C336.184 18.9533 336.204 18.9 336.244 18.86C336.297 18.8067 336.357 18.78 336.424 18.78H337.564C337.63 18.78 337.664 18.7467 337.664 18.68V16.34C337.664 16.2733 337.684 16.22 337.724 16.18C337.777 16.1267 337.837 16.1 337.904 16.1H339.644C339.71 16.1 339.764 16.1267 339.804 16.18C339.857 16.22 339.884 16.2733 339.884 16.34V18.68C339.884 18.7467 339.917 18.78 339.984 18.78H342.024C342.09 18.78 342.144 18.8067 342.184 18.86C342.237 18.9 342.264 18.9533 342.264 19.02V20.42ZM350.364 19.02C350.364 18.9533 350.384 18.9 350.424 18.86C350.477 18.8067 350.537 18.78 350.604 18.78H352.424C352.491 18.78 352.544 18.8067 352.584 18.86C352.637 18.9 352.664 18.9533 352.664 19.02V28.76C352.664 28.8267 352.637 28.8867 352.584 28.94C352.544 28.98 352.491 29 352.424 29H350.604C350.537 29 350.477 28.98 350.424 28.94C350.384 28.8867 350.364 28.8267 350.364 28.76V28.12C350.364 28.08 350.351 28.0533 350.324 28.04C350.297 28.0267 350.271 28.04 350.244 28.08C349.697 28.7867 348.877 29.14 347.784 29.14C346.771 29.14 345.917 28.8467 345.224 28.26C344.544 27.6733 344.204 26.84 344.204 25.76V19.02C344.204 18.9533 344.224 18.9 344.264 18.86C344.317 18.8067 344.377 18.78 344.444 18.78H346.284C346.351 18.78 346.404 18.8067 346.444 18.86C346.497 18.9 346.524 18.9533 346.524 19.02V25.1C346.524 25.7267 346.684 26.2267 347.004 26.6C347.337 26.9733 347.797 27.16 348.384 27.16C348.984 27.16 349.464 26.9733 349.824 26.6C350.184 26.2267 350.364 25.7267 350.364 25.1V19.02ZM359.904 18.66C360.331 18.66 360.704 18.7467 361.024 18.92C361.131 18.9733 361.171 19.0733 361.144 19.22L360.804 21.02C360.791 21.18 360.698 21.2267 360.524 21.16C360.324 21.0933 360.091 21.06 359.824 21.06C359.651 21.06 359.518 21.0667 359.424 21.08C358.864 21.1067 358.398 21.3067 358.024 21.68C357.651 22.04 357.464 22.5133 357.464 23.1V28.76C357.464 28.8267 357.438 28.8867 357.384 28.94C357.344 28.98 357.291 29 357.224 29H355.384C355.318 29 355.258 28.98 355.204 28.94C355.164 28.8867 355.144 28.8267 355.144 28.76V19.02C355.144 18.9533 355.164 18.9 355.204 18.86C355.258 18.8067 355.318 18.78 355.384 18.78H357.224C357.291 18.78 357.344 18.8067 357.384 18.86C357.438 18.9 357.464 18.9533 357.464 19.02V19.92C357.464 19.9733 357.471 20.0067 357.484 20.02C357.511 20.02 357.538 20 357.564 19.96C358.124 19.0933 358.904 18.66 359.904 18.66ZM373.604 18.62C374.63 18.62 375.43 18.9333 376.004 19.56C376.59 20.1733 376.884 21.0333 376.884 22.14V28.76C376.884 28.8267 376.857 28.8867 376.804 28.94C376.764 28.98 376.71 29 376.644 29H374.824C374.757 29 374.697 28.98 374.644 28.94C374.604 28.8867 374.584 28.8267 374.584 28.76V22.62C374.584 22.0067 374.417 21.52 374.084 21.16C373.764 20.8 373.33 20.62 372.784 20.62C372.237 20.62 371.79 20.8 371.444 21.16C371.097 21.52 370.924 22 370.924 22.6V28.76C370.924 28.8267 370.897 28.8867 370.844 28.94C370.804 28.98 370.75 29 370.684 29H368.864C368.797 29 368.737 28.98 368.684 28.94C368.644 28.8867 368.624 28.8267 368.624 28.76V22.62C368.624 22.0067 368.457 21.52 368.124 21.16C367.79 20.8 367.35 20.62 366.804 20.62C366.297 20.62 365.877 20.7667 365.544 21.06C365.224 21.3533 365.037 21.7533 364.984 22.26V28.76C364.984 28.8267 364.957 28.8867 364.904 28.94C364.864 28.98 364.81 29 364.744 29H362.904C362.837 29 362.777 28.98 362.724 28.94C362.684 28.8867 362.664 28.8267 362.664 28.76V19.02C362.664 18.9533 362.684 18.9 362.724 18.86C362.777 18.8067 362.837 18.78 362.904 18.78H364.744C364.81 18.78 364.864 18.8067 364.904 18.86C364.957 18.9 364.984 18.9533 364.984 19.02V19.68C364.984 19.72 364.997 19.7467 365.024 19.76C365.05 19.7733 365.077 19.76 365.104 19.72C365.397 19.3467 365.757 19.0733 366.184 18.9C366.624 18.7133 367.11 18.62 367.644 18.62C368.297 18.62 368.87 18.7533 369.364 19.02C369.857 19.2867 370.237 19.6733 370.504 20.18C370.544 20.2333 370.59 20.2333 370.644 20.18C370.937 19.6467 371.344 19.2533 371.864 19C372.384 18.7467 372.964 18.62 373.604 18.62ZM383.146 18.62C383.986 18.62 384.726 18.7667 385.366 19.06C386.006 19.3533 386.499 19.76 386.846 20.28C387.193 20.7867 387.366 21.3667 387.366 22.02V28.76C387.366 28.8267 387.339 28.8867 387.286 28.94C387.246 28.98 387.193 29 387.126 29H385.286C385.219 29 385.159 28.98 385.106 28.94C385.066 28.8867 385.046 28.8267 385.046 28.76V28.12C385.046 28.08 385.033 28.06 385.006 28.06C384.979 28.0467 384.953 28.0533 384.926 28.08C384.273 28.8 383.326 29.16 382.086 29.16C381.086 29.16 380.259 28.9067 379.606 28.4C378.966 27.8933 378.646 27.14 378.646 26.14C378.646 25.1 379.006 24.2933 379.726 23.72C380.459 23.1333 381.486 22.84 382.806 22.84H384.946C385.013 22.84 385.046 22.8067 385.046 22.74V22.26C385.046 21.74 384.893 21.34 384.586 21.06C384.279 20.7667 383.819 20.62 383.206 20.62C382.699 20.62 382.286 20.7133 381.966 20.9C381.659 21.0733 381.466 21.32 381.386 21.64C381.346 21.8 381.253 21.8667 381.106 21.84L379.166 21.6C379.099 21.5867 379.039 21.5667 378.986 21.54C378.946 21.5 378.933 21.4533 378.946 21.4C379.053 20.5867 379.486 19.92 380.246 19.4C381.019 18.88 381.986 18.62 383.146 18.62ZM382.666 27.32C383.319 27.32 383.879 27.1467 384.346 26.8C384.813 26.4533 385.046 26.0133 385.046 25.48V24.54C385.046 24.4733 385.013 24.44 384.946 24.44H383.266C382.559 24.44 381.999 24.5733 381.586 24.84C381.186 25.1067 380.986 25.4867 380.986 25.98C380.986 26.4067 381.139 26.74 381.446 26.98C381.766 27.2067 382.173 27.32 382.666 27.32Z" fill="#01E7F9"></path></svg>