<svg xmlns="http://www.w3.org/2000/svg" width="300" height="66" viewBox="0 0 300 66" fill="none"><path d="M69.8088 40C69.6754 40 69.6088 39.9333 69.6088 39.8V26.2C69.6088 26.0667 69.6754 26 69.8088 26H74.6488C76.0354 26 77.1421 26.3667 77.9688 27.1C78.7954 27.82 79.2088 28.7867 79.2088 30V36C79.2088 37.2133 78.7954 38.1867 77.9688 38.92C77.1421 39.64 76.0354 40 74.6488 40H69.8088ZM71.5288 38.26C71.5288 38.3133 71.5554 38.34 71.6088 38.34H74.7288C75.5021 38.34 76.1154 38.1067 76.5688 37.64C77.0354 37.16 77.2754 36.52 77.2888 35.72V30.28C77.2888 29.48 77.0554 28.8467 76.5888 28.38C76.1354 27.9 75.5154 27.66 74.7288 27.66H71.6088C71.5554 27.66 71.5288 27.6867 71.5288 27.74V38.26ZM91.272 27.46C91.272 27.5933 91.2054 27.66 91.072 27.66H83.972C83.9187 27.66 83.892 27.6867 83.892 27.74V32.04C83.892 32.0933 83.9187 32.12 83.972 32.12H88.852C88.9854 32.12 89.052 32.1867 89.052 32.32V33.58C89.052 33.7133 88.9854 33.78 88.852 33.78H83.972C83.9187 33.78 83.892 33.8067 83.892 33.86V38.26C83.892 38.3133 83.9187 38.34 83.972 38.34H91.072C91.2054 38.34 91.272 38.4067 91.272 38.54V39.8C91.272 39.9333 91.2054 40 91.072 40H82.172C82.0387 40 81.972 39.9333 81.972 39.8V26.2C81.972 26.0667 82.0387 26 82.172 26H91.072C91.2054 26 91.272 26.0667 91.272 26.2V27.46ZM105.189 40C105.056 40 104.962 39.94 104.909 39.82L102.409 34.28C102.382 34.2267 102.342 34.2 102.289 34.2H100.429C100.362 34.2 100.329 34.2333 100.329 34.3V39.76C100.329 39.8267 100.302 39.8867 100.249 39.94C100.209 39.98 100.156 40 100.089 40H97.7491C97.6824 40 97.6224 39.98 97.5691 39.94C97.5291 39.8867 97.5091 39.8267 97.5091 39.76V26.24C97.5091 26.1733 97.5291 26.12 97.5691 26.08C97.6224 26.0267 97.6824 26 97.7491 26H103.469C104.322 26 105.069 26.1733 105.709 26.52C106.362 26.8667 106.862 27.36 107.209 28C107.569 28.64 107.749 29.38 107.749 30.22C107.749 31.1267 107.522 31.9067 107.069 32.56C106.616 33.2 105.982 33.6533 105.169 33.92C105.102 33.9467 105.082 33.9933 105.109 34.06L107.829 39.72C107.856 39.7733 107.869 39.8133 107.869 39.84C107.869 39.9467 107.796 40 107.649 40H105.189ZM100.429 28.42C100.362 28.42 100.329 28.4533 100.329 28.52V31.94C100.329 32.0067 100.362 32.04 100.429 32.04H103.049C103.609 32.04 104.062 31.8733 104.409 31.54C104.769 31.2067 104.949 30.7733 104.949 30.24C104.949 29.7067 104.769 29.2733 104.409 28.94C104.062 28.5933 103.609 28.42 103.049 28.42H100.429ZM119.234 36.1C119.234 37.1667 118.908 38.0467 118.254 38.74C117.601 39.4333 116.708 39.8733 115.574 40.06C115.508 40.0867 115.474 40.1267 115.474 40.18L115.494 41.48C115.494 41.5467 115.468 41.6 115.414 41.64C115.374 41.6933 115.321 41.72 115.254 41.72H113.254C113.188 41.72 113.128 41.6933 113.074 41.64C113.034 41.6 113.014 41.5467 113.014 41.48L113.034 40.16C113.034 40.1067 113.001 40.0667 112.934 40.04C111.801 39.8133 110.908 39.3467 110.254 38.64C109.614 37.9333 109.294 37.0467 109.294 35.98V35.54C109.294 35.4733 109.314 35.42 109.354 35.38C109.408 35.3267 109.468 35.3 109.534 35.3H111.694C111.761 35.3 111.814 35.3267 111.854 35.38C111.908 35.42 111.934 35.4733 111.934 35.54V35.84C111.934 36.3733 112.168 36.8267 112.634 37.2C113.101 37.56 113.741 37.74 114.554 37.74C115.234 37.74 115.734 37.5933 116.054 37.3C116.388 36.9933 116.554 36.62 116.554 36.18C116.554 35.86 116.454 35.5933 116.254 35.38C116.054 35.1533 115.774 34.96 115.414 34.8C115.068 34.6267 114.514 34.3933 113.754 34.1C112.888 33.7933 112.161 33.48 111.574 33.16C110.988 32.84 110.488 32.4067 110.074 31.86C109.674 31.3 109.474 30.6133 109.474 29.8C109.474 28.7733 109.781 27.9267 110.394 27.26C111.021 26.58 111.861 26.14 112.914 25.94C112.981 25.9133 113.014 25.8733 113.014 25.82L112.974 24.36C112.974 24.2933 112.994 24.24 113.034 24.2C113.088 24.1467 113.148 24.12 113.214 24.12H115.214C115.281 24.12 115.334 24.1467 115.374 24.2C115.428 24.24 115.454 24.2933 115.454 24.36L115.434 25.86C115.434 25.9133 115.468 25.9533 115.534 25.98C116.641 26.2067 117.521 26.6933 118.174 27.44C118.828 28.1733 119.154 29.0733 119.154 30.14V30.44C119.154 30.5067 119.128 30.5667 119.074 30.62C119.034 30.66 118.981 30.68 118.914 30.68H116.734C116.668 30.68 116.608 30.66 116.554 30.62C116.514 30.5667 116.494 30.5067 116.494 30.44V30.28C116.494 29.72 116.274 29.2467 115.834 28.86C115.394 28.46 114.794 28.26 114.034 28.26C113.434 28.26 112.968 28.3933 112.634 28.66C112.301 28.9267 112.134 29.2933 112.134 29.76C112.134 30.0933 112.228 30.3733 112.414 30.6C112.614 30.8267 112.908 31.0333 113.294 31.22C113.681 31.4067 114.281 31.6467 115.094 31.94C115.988 32.2733 116.694 32.5733 117.214 32.84C117.734 33.1067 118.201 33.5067 118.614 34.04C119.028 34.5733 119.234 35.26 119.234 36.1ZM123.02 26.06C123.086 26.02 123.186 26 123.32 26H125.74C125.806 26 125.86 26.0267 125.9 26.08C125.953 26.12 125.98 26.1733 125.98 26.24V39.76C125.98 39.8267 125.953 39.8867 125.9 39.94C125.86 39.98 125.806 40 125.74 40H123.4C123.333 40 123.273 39.98 123.22 39.94C123.18 39.8867 123.16 39.8267 123.16 39.76V28.8C123.16 28.7733 123.146 28.7467 123.12 28.72C123.093 28.6933 123.066 28.6867 123.04 28.7L121.06 29.24L120.98 29.26C120.86 29.26 120.8 29.1867 120.8 29.04L120.74 27.32C120.74 27.1867 120.8 27.0933 120.92 27.04L123.02 26.06ZM129.69 40.08C129.237 40.08 128.857 39.9333 128.55 39.64C128.257 39.3333 128.11 38.9533 128.11 38.5C128.11 38.0333 128.257 37.6533 128.55 37.36C128.843 37.0667 129.223 36.92 129.69 36.92C130.157 36.92 130.537 37.0667 130.83 37.36C131.123 37.6533 131.27 38.0333 131.27 38.5C131.27 38.9533 131.117 39.3333 130.81 39.64C130.517 39.9333 130.143 40.08 129.69 40.08ZM143.4 33.9C143.467 33.9 143.52 33.9267 143.56 33.98C143.614 34.02 143.64 34.0733 143.64 34.14V36.16C143.64 36.2267 143.614 36.2867 143.56 36.34C143.52 36.38 143.467 36.4 143.4 36.4H142.54C142.474 36.4 142.44 36.4333 142.44 36.5V39.76C142.44 39.8267 142.414 39.8867 142.36 39.94C142.32 39.98 142.267 40 142.2 40H139.86C139.794 40 139.734 39.98 139.68 39.94C139.64 39.8867 139.62 39.8267 139.62 39.76V36.5C139.62 36.4333 139.587 36.4 139.52 36.4H133.38C133.314 36.4 133.254 36.38 133.2 36.34C133.16 36.2867 133.14 36.2267 133.14 36.16V34.56C133.14 34.48 133.16 34.38 133.2 34.26L136.8 26.18C136.854 26.06 136.947 26 137.08 26H139.58C139.674 26 139.734 26.0267 139.76 26.08C139.8 26.12 139.8 26.1867 139.76 26.28L136.42 33.78C136.407 33.8067 136.407 33.8333 136.42 33.86C136.434 33.8867 136.454 33.9 136.48 33.9H139.52C139.587 33.9 139.62 33.8667 139.62 33.8V31.32C139.62 31.2533 139.64 31.2 139.68 31.16C139.734 31.1067 139.794 31.08 139.86 31.08H142.2C142.267 31.08 142.32 31.1067 142.36 31.16C142.414 31.2 142.44 31.2533 142.44 31.32V33.8C142.44 33.8667 142.474 33.9 142.54 33.9H143.4ZM154.01 28.54C154.237 29.0867 154.35 29.74 154.35 30.5V36.52C154.35 37.24 154.163 37.88 153.79 38.44C153.417 38.9867 152.89 39.4133 152.21 39.72C151.53 40.0133 150.75 40.16 149.87 40.16C149.003 40.16 148.237 40.0133 147.57 39.72C146.903 39.4133 146.383 38.9933 146.01 38.46C145.637 37.9133 145.45 37.2867 145.45 36.58V36.02C145.45 35.9533 145.47 35.9 145.51 35.86C145.563 35.8067 145.623 35.78 145.69 35.78H148.03C148.097 35.78 148.15 35.8067 148.19 35.86C148.243 35.9 148.27 35.9533 148.27 36.02V36.2C148.27 36.64 148.417 37.0067 148.71 37.3C149.017 37.5933 149.403 37.74 149.87 37.74C150.363 37.74 150.763 37.5933 151.07 37.3C151.377 36.9933 151.53 36.6067 151.53 36.14V34.28C151.53 34.24 151.517 34.2133 151.49 34.2C151.463 34.1867 151.437 34.1933 151.41 34.22C150.863 34.6867 150.143 34.92 149.25 34.92C148.45 34.92 147.73 34.74 147.09 34.38C146.463 34.0067 145.97 33.4733 145.61 32.78C145.277 32.1533 145.11 31.3867 145.11 30.48C145.11 29.6933 145.243 29 145.51 28.4C145.843 27.6133 146.377 26.9933 147.11 26.54C147.857 26.0867 148.73 25.86 149.73 25.86C150.743 25.86 151.623 26.1 152.37 26.58C153.13 27.0467 153.677 27.7 154.01 28.54ZM149.73 32.56C150.423 32.56 150.923 32.2867 151.23 31.74C151.43 31.3933 151.53 30.9467 151.53 30.4C151.53 29.96 151.443 29.5533 151.27 29.18C150.977 28.5933 150.47 28.3 149.75 28.3C149.057 28.3 148.55 28.5933 148.23 29.18C148.03 29.5533 147.93 29.9733 147.93 30.44C147.93 30.9467 148.043 31.3867 148.27 31.76C148.603 32.2933 149.09 32.56 149.73 32.56ZM157.695 40C157.495 40 157.428 39.9067 157.495 39.72L161.835 28.54C161.862 28.46 161.835 28.42 161.755 28.42H158.015C157.948 28.42 157.915 28.4533 157.915 28.52V29.44C157.915 29.5067 157.888 29.5667 157.835 29.62C157.795 29.66 157.742 29.68 157.675 29.68H155.855C155.788 29.68 155.728 29.66 155.675 29.62C155.635 29.5667 155.615 29.5067 155.615 29.44L155.635 26.24C155.635 26.1733 155.655 26.12 155.695 26.08C155.748 26.0267 155.808 26 155.875 26H164.615C164.682 26 164.735 26.0267 164.775 26.08C164.828 26.12 164.855 26.1733 164.855 26.24V28.26C164.855 28.34 164.835 28.44 164.795 28.56L160.475 39.82C160.435 39.94 160.342 40 160.195 40H157.695ZM164.849 41.96C164.689 41.96 164.615 41.8733 164.629 41.7L165.289 37.06C165.302 36.9133 165.389 36.84 165.549 36.84H167.589C167.762 36.84 167.829 36.9267 167.789 37.1L166.549 41.76C166.509 41.8933 166.415 41.96 166.269 41.96H164.849ZM174.254 40.22C172.788 40.22 171.628 39.8133 170.774 39C169.921 38.1733 169.494 37.0533 169.494 35.64V30.36C169.494 28.9733 169.921 27.8733 170.774 27.06C171.628 26.2467 172.788 25.84 174.254 25.84C175.721 25.84 176.881 26.2467 177.734 27.06C178.601 27.8733 179.034 28.9733 179.034 30.36V35.64C179.034 37.0533 178.601 38.1733 177.734 39C176.881 39.8133 175.721 40.22 174.254 40.22ZM174.254 37.8C174.854 37.8 175.328 37.62 175.674 37.26C176.034 36.8867 176.214 36.3933 176.214 35.78V30.28C176.214 29.6667 176.034 29.18 175.674 28.82C175.328 28.4467 174.854 28.26 174.254 28.26C173.668 28.26 173.194 28.4467 172.834 28.82C172.488 29.18 172.314 29.6667 172.314 30.28V35.78C172.314 36.3933 172.488 36.8867 172.834 37.26C173.194 37.62 173.668 37.8 174.254 37.8ZM185.66 40.22C184.194 40.22 183.034 39.8133 182.18 39C181.327 38.1733 180.9 37.0533 180.9 35.64V30.36C180.9 28.9733 181.327 27.8733 182.18 27.06C183.034 26.2467 184.194 25.84 185.66 25.84C187.127 25.84 188.287 26.2467 189.14 27.06C190.007 27.8733 190.44 28.9733 190.44 30.36V35.64C190.44 37.0533 190.007 38.1733 189.14 39C188.287 39.8133 187.127 40.22 185.66 40.22ZM185.66 37.8C186.26 37.8 186.734 37.62 187.08 37.26C187.44 36.8867 187.62 36.3933 187.62 35.78V30.28C187.62 29.6667 187.44 29.18 187.08 28.82C186.734 28.4467 186.26 28.26 185.66 28.26C185.074 28.26 184.6 28.4467 184.24 28.82C183.894 29.18 183.72 29.6667 183.72 30.28V35.78C183.72 36.3933 183.894 36.8867 184.24 37.26C184.6 37.62 185.074 37.8 185.66 37.8ZM202.391 25.98C203.271 25.98 204.044 26.16 204.711 26.52C205.377 26.88 205.891 27.3933 206.251 28.06C206.624 28.7133 206.811 29.4667 206.811 30.32C206.811 31.16 206.617 31.9 206.231 32.54C205.857 33.18 205.324 33.68 204.631 34.04C203.951 34.3867 203.164 34.56 202.271 34.56H199.431C199.364 34.56 199.331 34.5933 199.331 34.66V39.76C199.331 39.8267 199.304 39.8867 199.251 39.94C199.211 39.98 199.157 40 199.091 40H196.751C196.684 40 196.624 39.98 196.571 39.94C196.531 39.8867 196.511 39.8267 196.511 39.76V26.22C196.511 26.1533 196.531 26.1 196.571 26.06C196.624 26.0067 196.684 25.98 196.751 25.98H202.391ZM201.971 32.3C202.584 32.3 203.077 32.1267 203.451 31.78C203.824 31.42 204.011 30.9533 204.011 30.38C204.011 29.7933 203.824 29.32 203.451 28.96C203.077 28.6 202.584 28.42 201.971 28.42H199.431C199.364 28.42 199.331 28.4533 199.331 28.52V32.2C199.331 32.2667 199.364 32.3 199.431 32.3H201.971ZM213.524 40.22C212.484 40.22 211.564 40.0067 210.764 39.58C209.978 39.1533 209.364 38.56 208.924 37.8C208.484 37.0267 208.264 36.14 208.264 35.14V30.86C208.264 29.8733 208.484 29 208.924 28.24C209.364 27.48 209.978 26.8933 210.764 26.48C211.564 26.0533 212.484 25.84 213.524 25.84C214.578 25.84 215.498 26.0533 216.284 26.48C217.084 26.8933 217.704 27.48 218.144 28.24C218.584 29 218.804 29.8733 218.804 30.86V35.14C218.804 36.14 218.584 37.0267 218.144 37.8C217.704 38.5733 217.084 39.1733 216.284 39.6C215.498 40.0133 214.578 40.22 213.524 40.22ZM213.524 37.8C214.258 37.8 214.851 37.5667 215.304 37.1C215.758 36.6333 215.984 36.0133 215.984 35.24V30.84C215.984 30.0667 215.758 29.4467 215.304 28.98C214.864 28.5 214.271 28.26 213.524 28.26C212.791 28.26 212.198 28.5 211.744 28.98C211.304 29.4467 211.084 30.0667 211.084 30.84V35.24C211.084 36.0133 211.304 36.6333 211.744 37.1C212.198 37.5667 212.791 37.8 213.524 37.8ZM228.646 40C228.513 40 228.419 39.94 228.366 39.82L225.866 34.28C225.839 34.2267 225.799 34.2 225.746 34.2H223.886C223.819 34.2 223.786 34.2333 223.786 34.3V39.76C223.786 39.8267 223.759 39.8867 223.706 39.94C223.666 39.98 223.613 40 223.546 40H221.206C221.139 40 221.079 39.98 221.026 39.94C220.986 39.8867 220.966 39.8267 220.966 39.76V26.24C220.966 26.1733 220.986 26.12 221.026 26.08C221.079 26.0267 221.139 26 221.206 26H226.926C227.779 26 228.526 26.1733 229.166 26.52C229.819 26.8667 230.319 27.36 230.666 28C231.026 28.64 231.206 29.38 231.206 30.22C231.206 31.1267 230.979 31.9067 230.526 32.56C230.073 33.2 229.439 33.6533 228.626 33.92C228.559 33.9467 228.539 33.9933 228.566 34.06L231.286 39.72C231.313 39.7733 231.326 39.8133 231.326 39.84C231.326 39.9467 231.253 40 231.106 40H228.646ZM223.886 28.42C223.819 28.42 223.786 28.4533 223.786 28.52V31.94C223.786 32.0067 223.819 32.04 223.886 32.04H226.506C227.066 32.04 227.519 31.8733 227.866 31.54C228.226 31.2067 228.406 30.7733 228.406 30.24C228.406 29.7067 228.226 29.2733 227.866 28.94C227.519 28.5933 227.066 28.42 226.506 28.42H223.886Z" fill="#FF0000"></path><path d="M96.2891 33.84H191.38V34.84H96.2891V33.84Z" fill="#FF0000"></path></svg>