<svg xmlns="http://www.w3.org/2000/svg" width="42" height="42" viewBox="0 0 42 42" fill="none"><path d="M17.2866 2.43966C19.5845 1.11298 22.4155 1.11298 24.7134 2.43966L35.217 8.50392C37.5149 9.83059 38.9304 12.2824 38.9304 14.9357V27.0643C38.9304 29.7176 37.5149 32.1694 35.217 33.4961L24.7134 39.5603C22.4155 40.887 19.5845 40.887 17.2866 39.5603L6.78298 33.4961C4.48511 32.1694 3.06956 29.7176 3.06956 27.0643V14.9357C3.06956 12.2824 4.48511 9.83059 6.78298 8.50392L17.2866 2.43966Z" stroke="#00E7F9" stroke-width="0.512195"></path><path d="M21 30C16.0293 30 12 25.9707 12 21C12 16.0293 16.0293 12 21 12C25.9707 12 30 16.0293 30 21C30 25.9707 25.9707 30 21 30ZM21 28.2C22.9096 28.2 24.7409 27.4414 26.0912 26.0912C27.4414 24.7409 28.2 22.9096 28.2 21C28.2 19.0904 27.4414 17.2591 26.0912 15.9088C24.7409 14.5586 22.9096 13.8 21 13.8C19.0904 13.8 17.2591 14.5586 15.9088 15.9088C14.5586 17.2591 13.8 19.0904 13.8 21C13.8 22.9096 14.5586 24.7409 15.9088 26.0912C17.2591 27.4414 19.0904 28.2 21 28.2ZM17.85 22.8H22.8C22.9193 22.8 23.0338 22.7526 23.1182 22.6682C23.2026 22.5838 23.25 22.4693 23.25 22.35C23.25 22.2307 23.2026 22.1162 23.1182 22.0318C23.0338 21.9474 22.9193 21.9 22.8 21.9H19.2C18.6033 21.9 18.031 21.6629 17.609 21.241C17.1871 20.819 16.95 20.2467 16.95 19.65C16.95 19.0533 17.1871 18.481 17.609 18.059C18.031 17.6371 18.6033 17.4 19.2 17.4H20.1V15.6H21.9V17.4H24.15V19.2H19.2C19.0807 19.2 18.9662 19.2474 18.8818 19.3318C18.7974 19.4162 18.75 19.5307 18.75 19.65C18.75 19.7693 18.7974 19.8838 18.8818 19.9682C18.9662 20.0526 19.0807 20.1 19.2 20.1H22.8C23.3967 20.1 23.969 20.3371 24.391 20.759C24.8129 21.181 25.05 21.7533 25.05 22.35C25.05 22.9467 24.8129 23.519 24.391 23.941C23.969 24.3629 23.3967 24.6 22.8 24.6H21.9V26.4H20.1V24.6H17.85V22.8Z" fill="#00E7F9"></path></svg>