<svg xmlns="http://www.w3.org/2000/svg" width="349" height="83" viewBox="0 0 349 83" fill="none"><path d="M35.1017 48C34.9684 48 34.9017 47.9333 34.9017 47.8V34.2C34.9017 34.0667 34.9684 34 35.1017 34H39.9417C41.3284 34 42.4351 34.3667 43.2617 35.1C44.0884 35.82 44.5017 36.7867 44.5017 38V44C44.5017 45.2133 44.0884 46.1867 43.2617 46.92C42.4351 47.64 41.3284 48 39.9417 48H35.1017ZM36.8217 46.26C36.8217 46.3133 36.8484 46.34 36.9017 46.34H40.0217C40.7951 46.34 41.4084 46.1067 41.8617 45.64C42.3284 45.16 42.5684 44.52 42.5817 43.72V38.28C42.5817 37.48 42.3484 36.8467 41.8817 36.38C41.4284 35.9 40.8084 35.66 40.0217 35.66H36.9017C36.8484 35.66 36.8217 35.6867 36.8217 35.74V46.26ZM56.565 35.46C56.565 35.5933 56.4983 35.66 56.365 35.66H49.265C49.2117 35.66 49.185 35.6867 49.185 35.74V40.04C49.185 40.0933 49.2117 40.12 49.265 40.12H54.145C54.2783 40.12 54.345 40.1867 54.345 40.32V41.58C54.345 41.7133 54.2783 41.78 54.145 41.78H49.265C49.2117 41.78 49.185 41.8067 49.185 41.86V46.26C49.185 46.3133 49.2117 46.34 49.265 46.34H56.365C56.4983 46.34 56.565 46.4067 56.565 46.54V47.8C56.565 47.9333 56.4983 48 56.365 48H47.465C47.3317 48 47.265 47.9333 47.265 47.8V34.2C47.265 34.0667 47.3317 34 47.465 34H56.365C56.4983 34 56.565 34.0667 56.565 34.2V35.46ZM70.482 48C70.3487 48 70.2554 47.94 70.202 47.82L67.702 42.28C67.6754 42.2267 67.6354 42.2 67.582 42.2H65.722C65.6554 42.2 65.622 42.2333 65.622 42.3V47.76C65.622 47.8267 65.5954 47.8867 65.542 47.94C65.502 47.98 65.4487 48 65.382 48H63.042C62.9754 48 62.9154 47.98 62.862 47.94C62.822 47.8867 62.802 47.8267 62.802 47.76V34.24C62.802 34.1733 62.822 34.12 62.862 34.08C62.9154 34.0267 62.9754 34 63.042 34H68.762C69.6154 34 70.362 34.1733 71.002 34.52C71.6554 34.8667 72.1554 35.36 72.502 36C72.862 36.64 73.042 37.38 73.042 38.22C73.042 39.1267 72.8154 39.9067 72.362 40.56C71.9087 41.2 71.2754 41.6533 70.462 41.92C70.3954 41.9467 70.3754 41.9933 70.402 42.06L73.122 47.72C73.1487 47.7733 73.162 47.8133 73.162 47.84C73.162 47.9467 73.0887 48 72.942 48H70.482ZM65.722 36.42C65.6554 36.42 65.622 36.4533 65.622 36.52V39.94C65.622 40.0067 65.6554 40.04 65.722 40.04H68.342C68.902 40.04 69.3554 39.8733 69.702 39.54C70.062 39.2067 70.242 38.7733 70.242 38.24C70.242 37.7067 70.062 37.2733 69.702 36.94C69.3554 36.5933 68.902 36.42 68.342 36.42H65.722ZM84.5272 44.1C84.5272 45.1667 84.2005 46.0467 83.5472 46.74C82.8939 47.4333 82.0005 47.8733 80.8672 48.06C80.8005 48.0867 80.7672 48.1267 80.7672 48.18L80.7872 49.48C80.7872 49.5467 80.7605 49.6 80.7072 49.64C80.6672 49.6933 80.6139 49.72 80.5472 49.72H78.5472C78.4805 49.72 78.4205 49.6933 78.3672 49.64C78.3272 49.6 78.3072 49.5467 78.3072 49.48L78.3272 48.16C78.3272 48.1067 78.2939 48.0667 78.2272 48.04C77.0939 47.8133 76.2005 47.3467 75.5472 46.64C74.9072 45.9333 74.5872 45.0467 74.5872 43.98V43.54C74.5872 43.4733 74.6072 43.42 74.6472 43.38C74.7005 43.3267 74.7605 43.3 74.8272 43.3H76.9872C77.0539 43.3 77.1072 43.3267 77.1472 43.38C77.2005 43.42 77.2272 43.4733 77.2272 43.54V43.84C77.2272 44.3733 77.4605 44.8267 77.9272 45.2C78.3939 45.56 79.0339 45.74 79.8472 45.74C80.5272 45.74 81.0272 45.5933 81.3472 45.3C81.6805 44.9933 81.8472 44.62 81.8472 44.18C81.8472 43.86 81.7472 43.5933 81.5472 43.38C81.3472 43.1533 81.0672 42.96 80.7072 42.8C80.3605 42.6267 79.8072 42.3933 79.0472 42.1C78.1805 41.7933 77.4539 41.48 76.8672 41.16C76.2805 40.84 75.7805 40.4067 75.3672 39.86C74.9672 39.3 74.7672 38.6133 74.7672 37.8C74.7672 36.7733 75.0739 35.9267 75.6872 35.26C76.3139 34.58 77.1539 34.14 78.2072 33.94C78.2739 33.9133 78.3072 33.8733 78.3072 33.82L78.2672 32.36C78.2672 32.2933 78.2872 32.24 78.3272 32.2C78.3805 32.1467 78.4405 32.12 78.5072 32.12H80.5072C80.5739 32.12 80.6272 32.1467 80.6672 32.2C80.7205 32.24 80.7472 32.2933 80.7472 32.36L80.7272 33.86C80.7272 33.9133 80.7605 33.9533 80.8272 33.98C81.9339 34.2067 82.8139 34.6933 83.4672 35.44C84.1205 36.1733 84.4472 37.0733 84.4472 38.14V38.44C84.4472 38.5067 84.4205 38.5667 84.3672 38.62C84.3272 38.66 84.2739 38.68 84.2072 38.68H82.0272C81.9605 38.68 81.9005 38.66 81.8472 38.62C81.8072 38.5667 81.7872 38.5067 81.7872 38.44V38.28C81.7872 37.72 81.5672 37.2467 81.1272 36.86C80.6872 36.46 80.0872 36.26 79.3272 36.26C78.7272 36.26 78.2605 36.3933 77.9272 36.66C77.5939 36.9267 77.4272 37.2933 77.4272 37.76C77.4272 38.0933 77.5205 38.3733 77.7072 38.6C77.9072 38.8267 78.2005 39.0333 78.5872 39.22C78.9739 39.4067 79.5739 39.6467 80.3872 39.94C81.2805 40.2733 81.9872 40.5733 82.5072 40.84C83.0272 41.1067 83.4939 41.5067 83.9072 42.04C84.3205 42.5733 84.5272 43.26 84.5272 44.1ZM98.7364 36.54C98.9631 37.0867 99.0764 37.74 99.0764 38.5V44.52C99.0764 45.24 98.8897 45.88 98.5164 46.44C98.1431 46.9867 97.6164 47.4133 96.9364 47.72C96.2564 48.0133 95.4764 48.16 94.5964 48.16C93.7297 48.16 92.9631 48.0133 92.2964 47.72C91.6297 47.4133 91.1097 46.9933 90.7364 46.46C90.3631 45.9133 90.1764 45.2867 90.1764 44.58V44.02C90.1764 43.9533 90.1964 43.9 90.2364 43.86C90.2897 43.8067 90.3497 43.78 90.4164 43.78H92.7564C92.8231 43.78 92.8764 43.8067 92.9164 43.86C92.9697 43.9 92.9964 43.9533 92.9964 44.02V44.2C92.9964 44.64 93.1431 45.0067 93.4364 45.3C93.7431 45.5933 94.1297 45.74 94.5964 45.74C95.0897 45.74 95.4897 45.5933 95.7964 45.3C96.1031 44.9933 96.2564 44.6067 96.2564 44.14V42.28C96.2564 42.24 96.2431 42.2133 96.2164 42.2C96.1897 42.1867 96.1631 42.1933 96.1364 42.22C95.5897 42.6867 94.8697 42.92 93.9764 42.92C93.1764 42.92 92.4564 42.74 91.8164 42.38C91.1897 42.0067 90.6964 41.4733 90.3364 40.78C90.0031 40.1533 89.8364 39.3867 89.8364 38.48C89.8364 37.6933 89.9697 37 90.2364 36.4C90.5697 35.6133 91.1031 34.9933 91.8364 34.54C92.5831 34.0867 93.4564 33.86 94.4564 33.86C95.4697 33.86 96.3497 34.1 97.0964 34.58C97.8564 35.0467 98.4031 35.7 98.7364 36.54ZM94.4564 40.56C95.1497 40.56 95.6497 40.2867 95.9564 39.74C96.1564 39.3933 96.2564 38.9467 96.2564 38.4C96.2564 37.96 96.1697 37.5533 95.9964 37.18C95.7031 36.5933 95.1964 36.3 94.4764 36.3C93.7831 36.3 93.2764 36.5933 92.9564 37.18C92.7564 37.5533 92.6564 37.9733 92.6564 38.44C92.6564 38.9467 92.7697 39.3867 92.9964 39.76C93.3297 40.2933 93.8164 40.56 94.4564 40.56ZM109.361 36.54C109.588 37.0867 109.701 37.74 109.701 38.5V44.52C109.701 45.24 109.515 45.88 109.141 46.44C108.768 46.9867 108.241 47.4133 107.561 47.72C106.881 48.0133 106.101 48.16 105.221 48.16C104.355 48.16 103.588 48.0133 102.921 47.72C102.255 47.4133 101.735 46.9933 101.361 46.46C100.988 45.9133 100.801 45.2867 100.801 44.58V44.02C100.801 43.9533 100.821 43.9 100.861 43.86C100.915 43.8067 100.975 43.78 101.041 43.78H103.381C103.448 43.78 103.501 43.8067 103.541 43.86C103.595 43.9 103.621 43.9533 103.621 44.02V44.2C103.621 44.64 103.768 45.0067 104.061 45.3C104.368 45.5933 104.755 45.74 105.221 45.74C105.715 45.74 106.115 45.5933 106.421 45.3C106.728 44.9933 106.881 44.6067 106.881 44.14V42.28C106.881 42.24 106.868 42.2133 106.841 42.2C106.815 42.1867 106.788 42.1933 106.761 42.22C106.215 42.6867 105.495 42.92 104.601 42.92C103.801 42.92 103.081 42.74 102.441 42.38C101.815 42.0067 101.321 41.4733 100.961 40.78C100.628 40.1533 100.461 39.3867 100.461 38.48C100.461 37.6933 100.595 37 100.861 36.4C101.195 35.6133 101.728 34.9933 102.461 34.54C103.208 34.0867 104.081 33.86 105.081 33.86C106.095 33.86 106.975 34.1 107.721 34.58C108.481 35.0467 109.028 35.7 109.361 36.54ZM105.081 40.56C105.775 40.56 106.275 40.2867 106.581 39.74C106.781 39.3933 106.881 38.9467 106.881 38.4C106.881 37.96 106.795 37.5533 106.621 37.18C106.328 36.5933 105.821 36.3 105.101 36.3C104.408 36.3 103.901 36.5933 103.581 37.18C103.381 37.5533 103.281 37.9733 103.281 38.44C103.281 38.9467 103.395 39.3867 103.621 39.76C103.955 40.2933 104.441 40.56 105.081 40.56ZM113.046 48C112.846 48 112.78 47.9067 112.846 47.72L117.186 36.54C117.213 36.46 117.186 36.42 117.106 36.42H113.366C113.3 36.42 113.266 36.4533 113.266 36.52V37.44C113.266 37.5067 113.24 37.5667 113.186 37.62C113.146 37.66 113.093 37.68 113.026 37.68H111.206C111.14 37.68 111.08 37.66 111.026 37.62C110.986 37.5667 110.966 37.5067 110.966 37.44L110.986 34.24C110.986 34.1733 111.006 34.12 111.046 34.08C111.1 34.0267 111.16 34 111.226 34H119.966C120.033 34 120.086 34.0267 120.126 34.08C120.18 34.12 120.206 34.1733 120.206 34.24V36.26C120.206 36.34 120.186 36.44 120.146 36.56L115.826 47.82C115.786 47.94 115.693 48 115.546 48H113.046ZM120.2 49.96C120.04 49.96 119.967 49.8733 119.98 49.7L120.64 45.06C120.653 44.9133 120.74 44.84 120.9 44.84H122.94C123.113 44.84 123.18 44.9267 123.14 45.1L121.9 49.76C121.86 49.8933 121.767 49.96 121.62 49.96H120.2ZM129.606 48.22C128.139 48.22 126.979 47.8133 126.126 47C125.272 46.1733 124.846 45.0533 124.846 43.64V38.36C124.846 36.9733 125.272 35.8733 126.126 35.06C126.979 34.2467 128.139 33.84 129.606 33.84C131.072 33.84 132.232 34.2467 133.086 35.06C133.952 35.8733 134.386 36.9733 134.386 38.36V43.64C134.386 45.0533 133.952 46.1733 133.086 47C132.232 47.8133 131.072 48.22 129.606 48.22ZM129.606 45.8C130.206 45.8 130.679 45.62 131.026 45.26C131.386 44.8867 131.566 44.3933 131.566 43.78V38.28C131.566 37.6667 131.386 37.18 131.026 36.82C130.679 36.4467 130.206 36.26 129.606 36.26C129.019 36.26 128.546 36.4467 128.186 36.82C127.839 37.18 127.666 37.6667 127.666 38.28V43.78C127.666 44.3933 127.839 44.8867 128.186 45.26C128.546 45.62 129.019 45.8 129.606 45.8ZM141.012 48.22C139.545 48.22 138.385 47.8133 137.532 47C136.679 46.1733 136.252 45.0533 136.252 43.64V38.36C136.252 36.9733 136.679 35.8733 137.532 35.06C138.385 34.2467 139.545 33.84 141.012 33.84C142.479 33.84 143.639 34.2467 144.492 35.06C145.359 35.8733 145.792 36.9733 145.792 38.36V43.64C145.792 45.0533 145.359 46.1733 144.492 47C143.639 47.8133 142.479 48.22 141.012 48.22ZM141.012 45.8C141.612 45.8 142.085 45.62 142.432 45.26C142.792 44.8867 142.972 44.3933 142.972 43.78V38.28C142.972 37.6667 142.792 37.18 142.432 36.82C142.085 36.4467 141.612 36.26 141.012 36.26C140.425 36.26 139.952 36.4467 139.592 36.82C139.245 37.18 139.072 37.6667 139.072 38.28V43.78C139.072 44.3933 139.245 44.8867 139.592 45.26C139.952 45.62 140.425 45.8 141.012 45.8Z" fill="white" fill-opacity="0.53"></path><path d="M61.582 41.84H146.732V42.84H61.582V41.84Z" fill="white" fill-opacity="0.53"></path><path d="M209.477 33.98C210.291 33.98 211.004 34.1533 211.617 34.5C212.244 34.8333 212.724 35.3067 213.057 35.92C213.404 36.5333 213.577 37.24 213.577 38.04C213.577 38.84 213.404 39.54 213.057 40.14C212.711 40.74 212.217 41.2067 211.577 41.54C210.951 41.8733 210.224 42.04 209.397 42.04H205.877C205.824 42.04 205.797 42.0667 205.797 42.12V47.8C205.797 47.9333 205.731 48 205.597 48H204.077C203.944 48 203.877 47.9333 203.877 47.8V34.18C203.877 34.0467 203.944 33.98 204.077 33.98H209.477ZM209.217 40.48C209.951 40.48 210.537 40.26 210.977 39.82C211.431 39.38 211.657 38.8 211.657 38.08C211.657 37.3467 211.431 36.76 210.977 36.32C210.537 35.8667 209.951 35.64 209.217 35.64H205.877C205.824 35.64 205.797 35.6667 205.797 35.72V40.4C205.797 40.4533 205.824 40.48 205.877 40.48H209.217ZM220.413 48.18C219.44 48.18 218.58 47.98 217.833 47.58C217.086 47.18 216.506 46.62 216.093 45.9C215.68 45.1667 215.473 44.3267 215.473 43.38V38.62C215.473 37.6733 215.68 36.84 216.093 36.12C216.506 35.4 217.086 34.84 217.833 34.44C218.58 34.04 219.44 33.84 220.413 33.84C221.4 33.84 222.266 34.04 223.013 34.44C223.76 34.84 224.34 35.4 224.753 36.12C225.166 36.84 225.373 37.6733 225.373 38.62V43.38C225.373 44.3267 225.166 45.1667 224.753 45.9C224.34 46.62 223.76 47.18 223.013 47.58C222.266 47.98 221.4 48.18 220.413 48.18ZM220.413 46.52C221.32 46.52 222.053 46.24 222.613 45.68C223.173 45.12 223.453 44.38 223.453 43.46V38.6C223.453 37.6667 223.173 36.92 222.613 36.36C222.053 35.7867 221.32 35.5 220.413 35.5C219.506 35.5 218.773 35.7867 218.213 36.36C217.666 36.92 217.393 37.6667 217.393 38.6V43.46C217.393 44.38 217.666 45.12 218.213 45.68C218.773 46.24 219.506 46.52 220.413 46.52ZM236.274 48C236.168 48 236.094 47.9533 236.054 47.86L233.254 41.88C233.241 41.84 233.214 41.82 233.174 41.82H230.294C230.241 41.82 230.214 41.8467 230.214 41.9V47.8C230.214 47.9333 230.148 48 230.014 48H228.494C228.361 48 228.294 47.9333 228.294 47.8V34.2C228.294 34.0667 228.361 34 228.494 34H233.874C234.674 34 235.374 34.1667 235.974 34.5C236.588 34.8333 237.061 35.3 237.394 35.9C237.728 36.5 237.894 37.1933 237.894 37.98C237.894 38.9133 237.648 39.7067 237.154 40.36C236.674 41 236.001 41.4333 235.134 41.66C235.081 41.6867 235.068 41.72 235.094 41.76L237.994 47.76C238.008 47.7867 238.014 47.82 238.014 47.86C238.014 47.9533 237.961 48 237.854 48H236.274ZM230.294 35.66C230.241 35.66 230.214 35.6867 230.214 35.74V40.22C230.214 40.2733 230.241 40.3 230.294 40.3H233.634C234.341 40.3 234.908 40.0933 235.334 39.68C235.761 39.2533 235.974 38.6933 235.974 38C235.974 37.2933 235.761 36.7267 235.334 36.3C234.908 35.8733 234.341 35.66 233.634 35.66H230.294ZM251.824 48C251.69 48 251.597 47.94 251.544 47.82L249.044 42.28C249.017 42.2267 248.977 42.2 248.924 42.2H247.064C246.997 42.2 246.964 42.2333 246.964 42.3V47.76C246.964 47.8267 246.937 47.8867 246.884 47.94C246.844 47.98 246.79 48 246.724 48H244.384C244.317 48 244.257 47.98 244.204 47.94C244.164 47.8867 244.144 47.8267 244.144 47.76V34.24C244.144 34.1733 244.164 34.12 244.204 34.08C244.257 34.0267 244.317 34 244.384 34H250.104C250.957 34 251.704 34.1733 252.344 34.52C252.997 34.8667 253.497 35.36 253.844 36C254.204 36.64 254.384 37.38 254.384 38.22C254.384 39.1267 254.157 39.9067 253.704 40.56C253.25 41.2 252.617 41.6533 251.804 41.92C251.737 41.9467 251.717 41.9933 251.744 42.06L254.464 47.72C254.49 47.7733 254.504 47.8133 254.504 47.84C254.504 47.9467 254.43 48 254.284 48H251.824ZM247.064 36.42C246.997 36.42 246.964 36.4533 246.964 36.52V39.94C246.964 40.0067 246.997 40.04 247.064 40.04H249.684C250.244 40.04 250.697 39.8733 251.044 39.54C251.404 39.2067 251.584 38.7733 251.584 38.24C251.584 37.7067 251.404 37.2733 251.044 36.94C250.697 36.5933 250.244 36.42 249.684 36.42H247.064ZM265.869 44.1C265.869 45.1667 265.542 46.0467 264.889 46.74C264.236 47.4333 263.342 47.8733 262.209 48.06C262.142 48.0867 262.109 48.1267 262.109 48.18L262.129 49.48C262.129 49.5467 262.102 49.6 262.049 49.64C262.009 49.6933 261.956 49.72 261.889 49.72H259.889C259.822 49.72 259.762 49.6933 259.709 49.64C259.669 49.6 259.649 49.5467 259.649 49.48L259.669 48.16C259.669 48.1067 259.636 48.0667 259.569 48.04C258.436 47.8133 257.542 47.3467 256.889 46.64C256.249 45.9333 255.929 45.0467 255.929 43.98V43.54C255.929 43.4733 255.949 43.42 255.989 43.38C256.042 43.3267 256.102 43.3 256.169 43.3H258.329C258.396 43.3 258.449 43.3267 258.489 43.38C258.542 43.42 258.569 43.4733 258.569 43.54V43.84C258.569 44.3733 258.802 44.8267 259.269 45.2C259.736 45.56 260.376 45.74 261.189 45.74C261.869 45.74 262.369 45.5933 262.689 45.3C263.022 44.9933 263.189 44.62 263.189 44.18C263.189 43.86 263.089 43.5933 262.889 43.38C262.689 43.1533 262.409 42.96 262.049 42.8C261.702 42.6267 261.149 42.3933 260.389 42.1C259.522 41.7933 258.796 41.48 258.209 41.16C257.622 40.84 257.122 40.4067 256.709 39.86C256.309 39.3 256.109 38.6133 256.109 37.8C256.109 36.7733 256.416 35.9267 257.029 35.26C257.656 34.58 258.496 34.14 259.549 33.94C259.616 33.9133 259.649 33.8733 259.649 33.82L259.609 32.36C259.609 32.2933 259.629 32.24 259.669 32.2C259.722 32.1467 259.782 32.12 259.849 32.12H261.849C261.916 32.12 261.969 32.1467 262.009 32.2C262.062 32.24 262.089 32.2933 262.089 32.36L262.069 33.86C262.069 33.9133 262.102 33.9533 262.169 33.98C263.276 34.2067 264.156 34.6933 264.809 35.44C265.462 36.1733 265.789 37.0733 265.789 38.14V38.44C265.789 38.5067 265.762 38.5667 265.709 38.62C265.669 38.66 265.616 38.68 265.549 38.68H263.369C263.302 38.68 263.242 38.66 263.189 38.62C263.149 38.5667 263.129 38.5067 263.129 38.44V38.28C263.129 37.72 262.909 37.2467 262.469 36.86C262.029 36.46 261.429 36.26 260.669 36.26C260.069 36.26 259.602 36.3933 259.269 36.66C258.936 36.9267 258.769 37.2933 258.769 37.76C258.769 38.0933 258.862 38.3733 259.049 38.6C259.249 38.8267 259.542 39.0333 259.929 39.22C260.316 39.4067 260.916 39.6467 261.729 39.94C262.622 40.2733 263.329 40.5733 263.849 40.84C264.369 41.1067 264.836 41.5067 265.249 42.04C265.662 42.5733 265.869 43.26 265.869 44.1ZM276.338 48.22C274.872 48.22 273.712 47.8133 272.858 47C272.005 46.1733 271.578 45.0533 271.578 43.64V38.36C271.578 36.9733 272.005 35.8733 272.858 35.06C273.712 34.2467 274.872 33.84 276.338 33.84C277.805 33.84 278.965 34.2467 279.818 35.06C280.685 35.8733 281.118 36.9733 281.118 38.36V43.64C281.118 45.0533 280.685 46.1733 279.818 47C278.965 47.8133 277.805 48.22 276.338 48.22ZM276.338 45.8C276.938 45.8 277.412 45.62 277.758 45.26C278.118 44.8867 278.298 44.3933 278.298 43.78V38.28C278.298 37.6667 278.118 37.18 277.758 36.82C277.412 36.4467 276.938 36.26 276.338 36.26C275.752 36.26 275.278 36.4467 274.918 36.82C274.572 37.18 274.398 37.6667 274.398 38.28V43.78C274.398 44.3933 274.572 44.8867 274.918 45.26C275.278 45.62 275.752 45.8 276.338 45.8ZM283.104 49.96C282.944 49.96 282.871 49.8733 282.884 49.7L283.544 45.06C283.558 44.9133 283.644 44.84 283.804 44.84H285.844C286.018 44.84 286.084 44.9267 286.044 45.1L284.804 49.76C284.764 49.8933 284.671 49.96 284.524 49.96H283.104ZM292.51 48.22C291.043 48.22 289.883 47.8133 289.03 47C288.177 46.1733 287.75 45.0533 287.75 43.64V38.36C287.75 36.9733 288.177 35.8733 289.03 35.06C289.883 34.2467 291.043 33.84 292.51 33.84C293.977 33.84 295.137 34.2467 295.99 35.06C296.857 35.8733 297.29 36.9733 297.29 38.36V43.64C297.29 45.0533 296.857 46.1733 295.99 47C295.137 47.8133 293.977 48.22 292.51 48.22ZM292.51 45.8C293.11 45.8 293.583 45.62 293.93 45.26C294.29 44.8867 294.47 44.3933 294.47 43.78V38.28C294.47 37.6667 294.29 37.18 293.93 36.82C293.583 36.4467 293.11 36.26 292.51 36.26C291.923 36.26 291.45 36.4467 291.09 36.82C290.743 37.18 290.57 37.6667 290.57 38.28V43.78C290.57 44.3933 290.743 44.8867 291.09 45.26C291.45 45.62 291.923 45.8 292.51 45.8ZM303.916 48.22C302.45 48.22 301.29 47.8133 300.436 47C299.583 46.1733 299.156 45.0533 299.156 43.64V38.36C299.156 36.9733 299.583 35.8733 300.436 35.06C301.29 34.2467 302.45 33.84 303.916 33.84C305.383 33.84 306.543 34.2467 307.396 35.06C308.263 35.8733 308.696 36.9733 308.696 38.36V43.64C308.696 45.0533 308.263 46.1733 307.396 47C306.543 47.8133 305.383 48.22 303.916 48.22ZM303.916 45.8C304.516 45.8 304.99 45.62 305.336 45.26C305.696 44.8867 305.876 44.3933 305.876 43.78V38.28C305.876 37.6667 305.696 37.18 305.336 36.82C304.99 36.4467 304.516 36.26 303.916 36.26C303.33 36.26 302.856 36.4467 302.496 36.82C302.15 37.18 301.976 37.6667 301.976 38.28V43.78C301.976 44.3933 302.15 44.8867 302.496 45.26C302.856 45.62 303.33 45.8 303.916 45.8Z" fill="#0CFF00"></path><rect x="0.5" y="0.5" width="348" height="82" rx="7.5" stroke="#00E7F9" stroke-opacity="0.36"></rect><line x1="173.5" y1="21" x2="173.5" y2="60" stroke="#00E7F9" stroke-opacity="0.4"></line></svg>