<svg xmlns="http://www.w3.org/2000/svg" width="349" height="83" viewBox="0 0 349 83" fill="none"><path d="M36.8791 48C36.7457 48 36.6791 47.9333 36.6791 47.8V34.2C36.6791 34.0667 36.7457 34 36.8791 34H41.7191C43.1057 34 44.2124 34.3667 45.0391 35.1C45.8657 35.82 46.2791 36.7867 46.2791 38V44C46.2791 45.2133 45.8657 46.1867 45.0391 46.92C44.2124 47.64 43.1057 48 41.7191 48H36.8791ZM38.5991 46.26C38.5991 46.3133 38.6257 46.34 38.6791 46.34H41.7991C42.5724 46.34 43.1857 46.1067 43.6391 45.64C44.1057 45.16 44.3457 44.52 44.3591 43.72V38.28C44.3591 37.48 44.1257 36.8467 43.6591 36.38C43.2057 35.9 42.5857 35.66 41.7991 35.66H38.6791C38.6257 35.66 38.5991 35.6867 38.5991 35.74V46.26ZM58.3423 35.46C58.3423 35.5933 58.2757 35.66 58.1423 35.66H51.0423C50.989 35.66 50.9623 35.6867 50.9623 35.74V40.04C50.9623 40.0933 50.989 40.12 51.0423 40.12H55.9223C56.0557 40.12 56.1223 40.1867 56.1223 40.32V41.58C56.1223 41.7133 56.0557 41.78 55.9223 41.78H51.0423C50.989 41.78 50.9623 41.8067 50.9623 41.86V46.26C50.9623 46.3133 50.989 46.34 51.0423 46.34H58.1423C58.2757 46.34 58.3423 46.4067 58.3423 46.54V47.8C58.3423 47.9333 58.2757 48 58.1423 48H49.2423C49.109 48 49.0423 47.9333 49.0423 47.8V34.2C49.0423 34.0667 49.109 34 49.2423 34H58.1423C58.2757 34 58.3423 34.0667 58.3423 34.2V35.46ZM72.2594 48C72.126 48 72.0327 47.94 71.9794 47.82L69.4794 42.28C69.4527 42.2267 69.4127 42.2 69.3594 42.2H67.4994C67.4327 42.2 67.3994 42.2333 67.3994 42.3V47.76C67.3994 47.8267 67.3727 47.8867 67.3194 47.94C67.2794 47.98 67.226 48 67.1594 48H64.8194C64.7527 48 64.6927 47.98 64.6394 47.94C64.5994 47.8867 64.5794 47.8267 64.5794 47.76V34.24C64.5794 34.1733 64.5994 34.12 64.6394 34.08C64.6927 34.0267 64.7527 34 64.8194 34H70.5394C71.3927 34 72.1394 34.1733 72.7794 34.52C73.4327 34.8667 73.9327 35.36 74.2794 36C74.6394 36.64 74.8194 37.38 74.8194 38.22C74.8194 39.1267 74.5927 39.9067 74.1394 40.56C73.686 41.2 73.0527 41.6533 72.2394 41.92C72.1727 41.9467 72.1527 41.9933 72.1794 42.06L74.8994 47.72C74.926 47.7733 74.9394 47.8133 74.9394 47.84C74.9394 47.9467 74.866 48 74.7194 48H72.2594ZM67.4994 36.42C67.4327 36.42 67.3994 36.4533 67.3994 36.52V39.94C67.3994 40.0067 67.4327 40.04 67.4994 40.04H70.1194C70.6794 40.04 71.1327 39.8733 71.4794 39.54C71.8394 39.2067 72.0194 38.7733 72.0194 38.24C72.0194 37.7067 71.8394 37.2733 71.4794 36.94C71.1327 36.5933 70.6794 36.42 70.1194 36.42H67.4994ZM86.3045 44.1C86.3045 45.1667 85.9779 46.0467 85.3245 46.74C84.6712 47.4333 83.7779 47.8733 82.6445 48.06C82.5779 48.0867 82.5445 48.1267 82.5445 48.18L82.5645 49.48C82.5645 49.5467 82.5379 49.6 82.4845 49.64C82.4445 49.6933 82.3912 49.72 82.3245 49.72H80.3245C80.2579 49.72 80.1979 49.6933 80.1445 49.64C80.1045 49.6 80.0845 49.5467 80.0845 49.48L80.1045 48.16C80.1045 48.1067 80.0712 48.0667 80.0045 48.04C78.8712 47.8133 77.9779 47.3467 77.3245 46.64C76.6845 45.9333 76.3645 45.0467 76.3645 43.98V43.54C76.3645 43.4733 76.3845 43.42 76.4245 43.38C76.4779 43.3267 76.5379 43.3 76.6045 43.3H78.7645C78.8312 43.3 78.8845 43.3267 78.9245 43.38C78.9779 43.42 79.0045 43.4733 79.0045 43.54V43.84C79.0045 44.3733 79.2379 44.8267 79.7045 45.2C80.1712 45.56 80.8112 45.74 81.6245 45.74C82.3045 45.74 82.8045 45.5933 83.1245 45.3C83.4579 44.9933 83.6245 44.62 83.6245 44.18C83.6245 43.86 83.5245 43.5933 83.3245 43.38C83.1245 43.1533 82.8445 42.96 82.4845 42.8C82.1379 42.6267 81.5845 42.3933 80.8245 42.1C79.9579 41.7933 79.2312 41.48 78.6445 41.16C78.0579 40.84 77.5579 40.4067 77.1445 39.86C76.7445 39.3 76.5445 38.6133 76.5445 37.8C76.5445 36.7733 76.8512 35.9267 77.4645 35.26C78.0912 34.58 78.9312 34.14 79.9845 33.94C80.0512 33.9133 80.0845 33.8733 80.0845 33.82L80.0445 32.36C80.0445 32.2933 80.0645 32.24 80.1045 32.2C80.1579 32.1467 80.2179 32.12 80.2845 32.12H82.2845C82.3512 32.12 82.4045 32.1467 82.4445 32.2C82.4979 32.24 82.5245 32.2933 82.5245 32.36L82.5045 33.86C82.5045 33.9133 82.5379 33.9533 82.6045 33.98C83.7112 34.2067 84.5912 34.6933 85.2445 35.44C85.8979 36.1733 86.2245 37.0733 86.2245 38.14V38.44C86.2245 38.5067 86.1979 38.5667 86.1445 38.62C86.1045 38.66 86.0512 38.68 85.9845 38.68H83.8045C83.7379 38.68 83.6779 38.66 83.6245 38.62C83.5845 38.5667 83.5645 38.5067 83.5645 38.44V38.28C83.5645 37.72 83.3445 37.2467 82.9045 36.86C82.4645 36.46 81.8645 36.26 81.1045 36.26C80.5045 36.26 80.0379 36.3933 79.7045 36.66C79.3712 36.9267 79.2045 37.2933 79.2045 37.76C79.2045 38.0933 79.2979 38.3733 79.4845 38.6C79.6845 38.8267 79.9779 39.0333 80.3645 39.22C80.7512 39.4067 81.3512 39.6467 82.1645 39.94C83.0579 40.2733 83.7645 40.5733 84.2845 40.84C84.8045 41.1067 85.2712 41.5067 85.6845 42.04C86.0979 42.5733 86.3045 43.26 86.3045 44.1ZM94.0938 34.06C94.1604 34.02 94.2604 34 94.3938 34H96.8138C96.8804 34 96.9338 34.0267 96.9737 34.08C97.0271 34.12 97.0538 34.1733 97.0538 34.24V47.76C97.0538 47.8267 97.0271 47.8867 96.9737 47.94C96.9338 47.98 96.8804 48 96.8138 48H94.4738C94.4071 48 94.3471 47.98 94.2938 47.94C94.2538 47.8867 94.2338 47.8267 94.2338 47.76V36.8C94.2338 36.7733 94.2204 36.7467 94.1938 36.72C94.1671 36.6933 94.1404 36.6867 94.1138 36.7L92.1338 37.24L92.0538 37.26C91.9338 37.26 91.8738 37.1867 91.8738 37.04L91.8138 35.32C91.8138 35.1867 91.8738 35.0933 91.9938 35.04L94.0938 34.06ZM107.584 36.54C107.811 37.0867 107.924 37.74 107.924 38.5V44.52C107.924 45.24 107.737 45.88 107.364 46.44C106.991 46.9867 106.464 47.4133 105.784 47.72C105.104 48.0133 104.324 48.16 103.444 48.16C102.577 48.16 101.811 48.0133 101.144 47.72C100.477 47.4133 99.9574 46.9933 99.5841 46.46C99.2107 45.9133 99.0241 45.2867 99.0241 44.58V44.02C99.0241 43.9533 99.0441 43.9 99.0841 43.86C99.1374 43.8067 99.1974 43.78 99.2641 43.78H101.604C101.671 43.78 101.724 43.8067 101.764 43.86C101.817 43.9 101.844 43.9533 101.844 44.02V44.2C101.844 44.64 101.991 45.0067 102.284 45.3C102.591 45.5933 102.977 45.74 103.444 45.74C103.937 45.74 104.337 45.5933 104.644 45.3C104.951 44.9933 105.104 44.6067 105.104 44.14V42.28C105.104 42.24 105.091 42.2133 105.064 42.2C105.037 42.1867 105.011 42.1933 104.984 42.22C104.437 42.6867 103.717 42.92 102.824 42.92C102.024 42.92 101.304 42.74 100.664 42.38C100.037 42.0067 99.5441 41.4733 99.1841 40.78C98.8507 40.1533 98.6841 39.3867 98.6841 38.48C98.6841 37.6933 98.8174 37 99.0841 36.4C99.4174 35.6133 99.9507 34.9933 100.684 34.54C101.431 34.0867 102.304 33.86 103.304 33.86C104.317 33.86 105.197 34.1 105.944 34.58C106.704 35.0467 107.251 35.7 107.584 36.54ZM103.304 40.56C103.997 40.56 104.497 40.2867 104.804 39.74C105.004 39.3933 105.104 38.9467 105.104 38.4C105.104 37.96 105.017 37.5533 104.844 37.18C104.551 36.5933 104.044 36.3 103.324 36.3C102.631 36.3 102.124 36.5933 101.804 37.18C101.604 37.5533 101.504 37.9733 101.504 38.44C101.504 38.9467 101.617 39.3867 101.844 39.76C102.177 40.2933 102.664 40.56 103.304 40.56ZM111.269 48C111.069 48 111.002 47.9067 111.069 47.72L115.409 36.54C115.436 36.46 115.409 36.42 115.329 36.42H111.589C111.522 36.42 111.489 36.4533 111.489 36.52V37.44C111.489 37.5067 111.462 37.5667 111.409 37.62C111.369 37.66 111.316 37.68 111.249 37.68H109.429C109.362 37.68 109.302 37.66 109.249 37.62C109.209 37.5667 109.189 37.5067 109.189 37.44L109.209 34.24C109.209 34.1733 109.229 34.12 109.269 34.08C109.322 34.0267 109.382 34 109.449 34H118.189C118.256 34 118.309 34.0267 118.349 34.08C118.402 34.12 118.429 34.1733 118.429 34.24V36.26C118.429 36.34 118.409 36.44 118.369 36.56L114.049 47.82C114.009 47.94 113.916 48 113.769 48H111.269ZM118.423 49.96C118.263 49.96 118.189 49.8733 118.203 49.7L118.863 45.06C118.876 44.9133 118.963 44.84 119.123 44.84H121.163C121.336 44.84 121.403 44.9267 121.363 45.1L120.123 49.76C120.083 49.8933 119.989 49.96 119.843 49.96H118.423ZM127.828 48.22C126.362 48.22 125.202 47.8133 124.348 47C123.495 46.1733 123.068 45.0533 123.068 43.64V38.36C123.068 36.9733 123.495 35.8733 124.348 35.06C125.202 34.2467 126.362 33.84 127.828 33.84C129.295 33.84 130.455 34.2467 131.308 35.06C132.175 35.8733 132.608 36.9733 132.608 38.36V43.64C132.608 45.0533 132.175 46.1733 131.308 47C130.455 47.8133 129.295 48.22 127.828 48.22ZM127.828 45.8C128.428 45.8 128.902 45.62 129.248 45.26C129.608 44.8867 129.788 44.3933 129.788 43.78V38.28C129.788 37.6667 129.608 37.18 129.248 36.82C128.902 36.4467 128.428 36.26 127.828 36.26C127.242 36.26 126.768 36.4467 126.408 36.82C126.062 37.18 125.888 37.6667 125.888 38.28V43.78C125.888 44.3933 126.062 44.8867 126.408 45.26C126.768 45.62 127.242 45.8 127.828 45.8ZM139.235 48.22C137.768 48.22 136.608 47.8133 135.755 47C134.901 46.1733 134.475 45.0533 134.475 43.64V38.36C134.475 36.9733 134.901 35.8733 135.755 35.06C136.608 34.2467 137.768 33.84 139.235 33.84C140.701 33.84 141.861 34.2467 142.715 35.06C143.581 35.8733 144.015 36.9733 144.015 38.36V43.64C144.015 45.0533 143.581 46.1733 142.715 47C141.861 47.8133 140.701 48.22 139.235 48.22ZM139.235 45.8C139.835 45.8 140.308 45.62 140.655 45.26C141.015 44.8867 141.195 44.3933 141.195 43.78V38.28C141.195 37.6667 141.015 37.18 140.655 36.82C140.308 36.4467 139.835 36.26 139.235 36.26C138.648 36.26 138.175 36.4467 137.815 36.82C137.468 37.18 137.295 37.6667 137.295 38.28V43.78C137.295 44.3933 137.468 44.8867 137.815 45.26C138.175 45.62 138.648 45.8 139.235 45.8Z" fill="white" fill-opacity="0.53"></path><path d="M63.3594 41.84H144.955V42.84H63.3594V41.84Z" fill="white" fill-opacity="0.53"></path><path d="M209.477 33.98C210.291 33.98 211.004 34.1533 211.617 34.5C212.244 34.8333 212.724 35.3067 213.057 35.92C213.404 36.5333 213.577 37.24 213.577 38.04C213.577 38.84 213.404 39.54 213.057 40.14C212.711 40.74 212.217 41.2067 211.577 41.54C210.951 41.8733 210.224 42.04 209.397 42.04H205.877C205.824 42.04 205.797 42.0667 205.797 42.12V47.8C205.797 47.9333 205.731 48 205.597 48H204.077C203.944 48 203.877 47.9333 203.877 47.8V34.18C203.877 34.0467 203.944 33.98 204.077 33.98H209.477ZM209.217 40.48C209.951 40.48 210.537 40.26 210.977 39.82C211.431 39.38 211.657 38.8 211.657 38.08C211.657 37.3467 211.431 36.76 210.977 36.32C210.537 35.8667 209.951 35.64 209.217 35.64H205.877C205.824 35.64 205.797 35.6667 205.797 35.72V40.4C205.797 40.4533 205.824 40.48 205.877 40.48H209.217ZM220.413 48.18C219.44 48.18 218.58 47.98 217.833 47.58C217.086 47.18 216.506 46.62 216.093 45.9C215.68 45.1667 215.473 44.3267 215.473 43.38V38.62C215.473 37.6733 215.68 36.84 216.093 36.12C216.506 35.4 217.086 34.84 217.833 34.44C218.58 34.04 219.44 33.84 220.413 33.84C221.4 33.84 222.266 34.04 223.013 34.44C223.76 34.84 224.34 35.4 224.753 36.12C225.166 36.84 225.373 37.6733 225.373 38.62V43.38C225.373 44.3267 225.166 45.1667 224.753 45.9C224.34 46.62 223.76 47.18 223.013 47.58C222.266 47.98 221.4 48.18 220.413 48.18ZM220.413 46.52C221.32 46.52 222.053 46.24 222.613 45.68C223.173 45.12 223.453 44.38 223.453 43.46V38.6C223.453 37.6667 223.173 36.92 222.613 36.36C222.053 35.7867 221.32 35.5 220.413 35.5C219.506 35.5 218.773 35.7867 218.213 36.36C217.666 36.92 217.393 37.6667 217.393 38.6V43.46C217.393 44.38 217.666 45.12 218.213 45.68C218.773 46.24 219.506 46.52 220.413 46.52ZM236.274 48C236.168 48 236.094 47.9533 236.054 47.86L233.254 41.88C233.241 41.84 233.214 41.82 233.174 41.82H230.294C230.241 41.82 230.214 41.8467 230.214 41.9V47.8C230.214 47.9333 230.148 48 230.014 48H228.494C228.361 48 228.294 47.9333 228.294 47.8V34.2C228.294 34.0667 228.361 34 228.494 34H233.874C234.674 34 235.374 34.1667 235.974 34.5C236.588 34.8333 237.061 35.3 237.394 35.9C237.728 36.5 237.894 37.1933 237.894 37.98C237.894 38.9133 237.648 39.7067 237.154 40.36C236.674 41 236.001 41.4333 235.134 41.66C235.081 41.6867 235.068 41.72 235.094 41.76L237.994 47.76C238.008 47.7867 238.014 47.82 238.014 47.86C238.014 47.9533 237.961 48 237.854 48H236.274ZM230.294 35.66C230.241 35.66 230.214 35.6867 230.214 35.74V40.22C230.214 40.2733 230.241 40.3 230.294 40.3H233.634C234.341 40.3 234.908 40.0933 235.334 39.68C235.761 39.2533 235.974 38.6933 235.974 38C235.974 37.2933 235.761 36.7267 235.334 36.3C234.908 35.8733 234.341 35.66 233.634 35.66H230.294ZM251.824 48C251.69 48 251.597 47.94 251.544 47.82L249.044 42.28C249.017 42.2267 248.977 42.2 248.924 42.2H247.064C246.997 42.2 246.964 42.2333 246.964 42.3V47.76C246.964 47.8267 246.937 47.8867 246.884 47.94C246.844 47.98 246.79 48 246.724 48H244.384C244.317 48 244.257 47.98 244.204 47.94C244.164 47.8867 244.144 47.8267 244.144 47.76V34.24C244.144 34.1733 244.164 34.12 244.204 34.08C244.257 34.0267 244.317 34 244.384 34H250.104C250.957 34 251.704 34.1733 252.344 34.52C252.997 34.8667 253.497 35.36 253.844 36C254.204 36.64 254.384 37.38 254.384 38.22C254.384 39.1267 254.157 39.9067 253.704 40.56C253.25 41.2 252.617 41.6533 251.804 41.92C251.737 41.9467 251.717 41.9933 251.744 42.06L254.464 47.72C254.49 47.7733 254.504 47.8133 254.504 47.84C254.504 47.9467 254.43 48 254.284 48H251.824ZM247.064 36.42C246.997 36.42 246.964 36.4533 246.964 36.52V39.94C246.964 40.0067 246.997 40.04 247.064 40.04H249.684C250.244 40.04 250.697 39.8733 251.044 39.54C251.404 39.2067 251.584 38.7733 251.584 38.24C251.584 37.7067 251.404 37.2733 251.044 36.94C250.697 36.5933 250.244 36.42 249.684 36.42H247.064ZM265.869 44.1C265.869 45.1667 265.542 46.0467 264.889 46.74C264.236 47.4333 263.342 47.8733 262.209 48.06C262.142 48.0867 262.109 48.1267 262.109 48.18L262.129 49.48C262.129 49.5467 262.102 49.6 262.049 49.64C262.009 49.6933 261.956 49.72 261.889 49.72H259.889C259.822 49.72 259.762 49.6933 259.709 49.64C259.669 49.6 259.649 49.5467 259.649 49.48L259.669 48.16C259.669 48.1067 259.636 48.0667 259.569 48.04C258.436 47.8133 257.542 47.3467 256.889 46.64C256.249 45.9333 255.929 45.0467 255.929 43.98V43.54C255.929 43.4733 255.949 43.42 255.989 43.38C256.042 43.3267 256.102 43.3 256.169 43.3H258.329C258.396 43.3 258.449 43.3267 258.489 43.38C258.542 43.42 258.569 43.4733 258.569 43.54V43.84C258.569 44.3733 258.802 44.8267 259.269 45.2C259.736 45.56 260.376 45.74 261.189 45.74C261.869 45.74 262.369 45.5933 262.689 45.3C263.022 44.9933 263.189 44.62 263.189 44.18C263.189 43.86 263.089 43.5933 262.889 43.38C262.689 43.1533 262.409 42.96 262.049 42.8C261.702 42.6267 261.149 42.3933 260.389 42.1C259.522 41.7933 258.796 41.48 258.209 41.16C257.622 40.84 257.122 40.4067 256.709 39.86C256.309 39.3 256.109 38.6133 256.109 37.8C256.109 36.7733 256.416 35.9267 257.029 35.26C257.656 34.58 258.496 34.14 259.549 33.94C259.616 33.9133 259.649 33.8733 259.649 33.82L259.609 32.36C259.609 32.2933 259.629 32.24 259.669 32.2C259.722 32.1467 259.782 32.12 259.849 32.12H261.849C261.916 32.12 261.969 32.1467 262.009 32.2C262.062 32.24 262.089 32.2933 262.089 32.36L262.069 33.86C262.069 33.9133 262.102 33.9533 262.169 33.98C263.276 34.2067 264.156 34.6933 264.809 35.44C265.462 36.1733 265.789 37.0733 265.789 38.14V38.44C265.789 38.5067 265.762 38.5667 265.709 38.62C265.669 38.66 265.616 38.68 265.549 38.68H263.369C263.302 38.68 263.242 38.66 263.189 38.62C263.149 38.5667 263.129 38.5067 263.129 38.44V38.28C263.129 37.72 262.909 37.2467 262.469 36.86C262.029 36.46 261.429 36.26 260.669 36.26C260.069 36.26 259.602 36.3933 259.269 36.66C258.936 36.9267 258.769 37.2933 258.769 37.76C258.769 38.0933 258.862 38.3733 259.049 38.6C259.249 38.8267 259.542 39.0333 259.929 39.22C260.316 39.4067 260.916 39.6467 261.729 39.94C262.622 40.2733 263.329 40.5733 263.849 40.84C264.369 41.1067 264.836 41.5067 265.249 42.04C265.662 42.5733 265.869 43.26 265.869 44.1ZM276.338 48.22C274.872 48.22 273.712 47.8133 272.858 47C272.005 46.1733 271.578 45.0533 271.578 43.64V38.36C271.578 36.9733 272.005 35.8733 272.858 35.06C273.712 34.2467 274.872 33.84 276.338 33.84C277.805 33.84 278.965 34.2467 279.818 35.06C280.685 35.8733 281.118 36.9733 281.118 38.36V43.64C281.118 45.0533 280.685 46.1733 279.818 47C278.965 47.8133 277.805 48.22 276.338 48.22ZM276.338 45.8C276.938 45.8 277.412 45.62 277.758 45.26C278.118 44.8867 278.298 44.3933 278.298 43.78V38.28C278.298 37.6667 278.118 37.18 277.758 36.82C277.412 36.4467 276.938 36.26 276.338 36.26C275.752 36.26 275.278 36.4467 274.918 36.82C274.572 37.18 274.398 37.6667 274.398 38.28V43.78C274.398 44.3933 274.572 44.8867 274.918 45.26C275.278 45.62 275.752 45.8 276.338 45.8ZM283.104 49.96C282.944 49.96 282.871 49.8733 282.884 49.7L283.544 45.06C283.558 44.9133 283.644 44.84 283.804 44.84H285.844C286.018 44.84 286.084 44.9267 286.044 45.1L284.804 49.76C284.764 49.8933 284.671 49.96 284.524 49.96H283.104ZM292.51 48.22C291.043 48.22 289.883 47.8133 289.03 47C288.177 46.1733 287.75 45.0533 287.75 43.64V38.36C287.75 36.9733 288.177 35.8733 289.03 35.06C289.883 34.2467 291.043 33.84 292.51 33.84C293.977 33.84 295.137 34.2467 295.99 35.06C296.857 35.8733 297.29 36.9733 297.29 38.36V43.64C297.29 45.0533 296.857 46.1733 295.99 47C295.137 47.8133 293.977 48.22 292.51 48.22ZM292.51 45.8C293.11 45.8 293.583 45.62 293.93 45.26C294.29 44.8867 294.47 44.3933 294.47 43.78V38.28C294.47 37.6667 294.29 37.18 293.93 36.82C293.583 36.4467 293.11 36.26 292.51 36.26C291.923 36.26 291.45 36.4467 291.09 36.82C290.743 37.18 290.57 37.6667 290.57 38.28V43.78C290.57 44.3933 290.743 44.8867 291.09 45.26C291.45 45.62 291.923 45.8 292.51 45.8ZM303.916 48.22C302.45 48.22 301.29 47.8133 300.436 47C299.583 46.1733 299.156 45.0533 299.156 43.64V38.36C299.156 36.9733 299.583 35.8733 300.436 35.06C301.29 34.2467 302.45 33.84 303.916 33.84C305.383 33.84 306.543 34.2467 307.396 35.06C308.263 35.8733 308.696 36.9733 308.696 38.36V43.64C308.696 45.0533 308.263 46.1733 307.396 47C306.543 47.8133 305.383 48.22 303.916 48.22ZM303.916 45.8C304.516 45.8 304.99 45.62 305.336 45.26C305.696 44.8867 305.876 44.3933 305.876 43.78V38.28C305.876 37.6667 305.696 37.18 305.336 36.82C304.99 36.4467 304.516 36.26 303.916 36.26C303.33 36.26 302.856 36.4467 302.496 36.82C302.15 37.18 301.976 37.6667 301.976 38.28V43.78C301.976 44.3933 302.15 44.8867 302.496 45.26C302.856 45.62 303.33 45.8 303.916 45.8Z" fill="#0CFF00"></path><rect x="0.5" y="0.5" width="348" height="82" rx="7.5" stroke="#00E7F9" stroke-opacity="0.36"></rect><line x1="173.5" y1="21" x2="173.5" y2="60" stroke="#00E7F9" stroke-opacity="0.4"></line></svg>