<svg xmlns="http://www.w3.org/2000/svg" width="82" height="82" viewBox="0 0 82 82" fill="none"><path d="M34 47.6666L41 54.6666L48 47.6666" stroke="#00E7F9" stroke-width="2"></path><path d="M34 36.6666L41 43.6666L48 36.6666" stroke="white" stroke-opacity="0.5" stroke-width="2"></path><path d="M34 26.6666L41 33.6666L48 26.6666" stroke="white" stroke-opacity="0.2" stroke-width="2"></path><path d="M33.75 4.76314C38.2363 2.17297 43.7637 2.17296 48.25 4.76314L68.757 16.6029C73.2434 19.1931 76.007 23.9799 76.007 29.1603V52.8397C76.007 58.0201 73.2434 62.8069 68.757 65.3971L48.25 77.2369C43.7637 79.827 38.2363 79.827 33.75 77.2369L13.243 65.3971C8.75664 62.8069 5.99296 58.0201 5.99296 52.8397V29.1603C5.99296 23.9799 8.75664 19.1931 13.243 16.6029L33.75 4.76314Z" stroke="#00E7F9"></path></svg>