<svg xmlns="http://www.w3.org/2000/svg" width="349" height="83" viewBox="0 0 349 83" fill="none"><path d="M34.3595 48C34.2262 48 34.1595 47.9333 34.1595 47.8V34.2C34.1595 34.0667 34.2262 34 34.3595 34H39.1995C40.5862 34 41.6929 34.3667 42.5195 35.1C43.3462 35.82 43.7595 36.7867 43.7595 38V44C43.7595 45.2133 43.3462 46.1867 42.5195 46.92C41.6929 47.64 40.5862 48 39.1995 48H34.3595ZM36.0795 46.26C36.0795 46.3133 36.1062 46.34 36.1595 46.34H39.2795C40.0529 46.34 40.6662 46.1067 41.1195 45.64C41.5862 45.16 41.8262 44.52 41.8395 43.72V38.28C41.8395 37.48 41.6062 36.8467 41.1395 36.38C40.6862 35.9 40.0662 35.66 39.2795 35.66H36.1595C36.1062 35.66 36.0795 35.6867 36.0795 35.74V46.26ZM55.8228 35.46C55.8228 35.5933 55.7561 35.66 55.6228 35.66H48.5228C48.4695 35.66 48.4428 35.6867 48.4428 35.74V40.04C48.4428 40.0933 48.4695 40.12 48.5228 40.12H53.4028C53.5361 40.12 53.6028 40.1867 53.6028 40.32V41.58C53.6028 41.7133 53.5361 41.78 53.4028 41.78H48.5228C48.4695 41.78 48.4428 41.8067 48.4428 41.86V46.26C48.4428 46.3133 48.4695 46.34 48.5228 46.34H55.6228C55.7561 46.34 55.8228 46.4067 55.8228 46.54V47.8C55.8228 47.9333 55.7561 48 55.6228 48H46.7228C46.5895 48 46.5228 47.9333 46.5228 47.8V34.2C46.5228 34.0667 46.5895 34 46.7228 34H55.6228C55.7561 34 55.8228 34.0667 55.8228 34.2V35.46ZM69.7398 48C69.6065 48 69.5132 47.94 69.4598 47.82L66.9598 42.28C66.9332 42.2267 66.8932 42.2 66.8398 42.2H64.9798C64.9132 42.2 64.8798 42.2333 64.8798 42.3V47.76C64.8798 47.8267 64.8532 47.8867 64.7998 47.94C64.7598 47.98 64.7065 48 64.6398 48H62.2998C62.2332 48 62.1732 47.98 62.1198 47.94C62.0798 47.8867 62.0598 47.8267 62.0598 47.76V34.24C62.0598 34.1733 62.0798 34.12 62.1198 34.08C62.1732 34.0267 62.2332 34 62.2998 34H68.0198C68.8732 34 69.6198 34.1733 70.2598 34.52C70.9132 34.8667 71.4132 35.36 71.7598 36C72.1198 36.64 72.2998 37.38 72.2998 38.22C72.2998 39.1267 72.0732 39.9067 71.6198 40.56C71.1665 41.2 70.5332 41.6533 69.7198 41.92C69.6532 41.9467 69.6332 41.9933 69.6598 42.06L72.3798 47.72C72.4065 47.7733 72.4198 47.8133 72.4198 47.84C72.4198 47.9467 72.3465 48 72.1998 48H69.7398ZM64.9798 36.42C64.9132 36.42 64.8798 36.4533 64.8798 36.52V39.94C64.8798 40.0067 64.9132 40.04 64.9798 40.04H67.5998C68.1598 40.04 68.6132 39.8733 68.9598 39.54C69.3198 39.2067 69.4998 38.7733 69.4998 38.24C69.4998 37.7067 69.3198 37.2733 68.9598 36.94C68.6132 36.5933 68.1598 36.42 67.5998 36.42H64.9798ZM83.785 44.1C83.785 45.1667 83.4583 46.0467 82.805 46.74C82.1517 47.4333 81.2583 47.8733 80.125 48.06C80.0583 48.0867 80.025 48.1267 80.025 48.18L80.045 49.48C80.045 49.5467 80.0183 49.6 79.965 49.64C79.925 49.6933 79.8717 49.72 79.805 49.72H77.805C77.7383 49.72 77.6783 49.6933 77.625 49.64C77.585 49.6 77.565 49.5467 77.565 49.48L77.585 48.16C77.585 48.1067 77.5517 48.0667 77.485 48.04C76.3517 47.8133 75.4583 47.3467 74.805 46.64C74.165 45.9333 73.845 45.0467 73.845 43.98V43.54C73.845 43.4733 73.865 43.42 73.905 43.38C73.9583 43.3267 74.0183 43.3 74.085 43.3H76.245C76.3117 43.3 76.365 43.3267 76.405 43.38C76.4583 43.42 76.485 43.4733 76.485 43.54V43.84C76.485 44.3733 76.7183 44.8267 77.185 45.2C77.6517 45.56 78.2917 45.74 79.105 45.74C79.785 45.74 80.285 45.5933 80.605 45.3C80.9383 44.9933 81.105 44.62 81.105 44.18C81.105 43.86 81.005 43.5933 80.805 43.38C80.605 43.1533 80.325 42.96 79.965 42.8C79.6183 42.6267 79.065 42.3933 78.305 42.1C77.4383 41.7933 76.7117 41.48 76.125 41.16C75.5383 40.84 75.0383 40.4067 74.625 39.86C74.225 39.3 74.025 38.6133 74.025 37.8C74.025 36.7733 74.3317 35.9267 74.945 35.26C75.5717 34.58 76.4117 34.14 77.465 33.94C77.5317 33.9133 77.565 33.8733 77.565 33.82L77.525 32.36C77.525 32.2933 77.545 32.24 77.585 32.2C77.6383 32.1467 77.6983 32.12 77.765 32.12H79.765C79.8317 32.12 79.885 32.1467 79.925 32.2C79.9783 32.24 80.005 32.2933 80.005 32.36L79.985 33.86C79.985 33.9133 80.0183 33.9533 80.085 33.98C81.1917 34.2067 82.0717 34.6933 82.725 35.44C83.3783 36.1733 83.705 37.0733 83.705 38.14V38.44C83.705 38.5067 83.6783 38.5667 83.625 38.62C83.585 38.66 83.5317 38.68 83.465 38.68H81.285C81.2183 38.68 81.1583 38.66 81.105 38.62C81.065 38.5667 81.045 38.5067 81.045 38.44V38.28C81.045 37.72 80.825 37.2467 80.385 36.86C79.945 36.46 79.345 36.26 78.585 36.26C77.985 36.26 77.5183 36.3933 77.185 36.66C76.8517 36.9267 76.685 37.2933 76.685 37.76C76.685 38.0933 76.7783 38.3733 76.965 38.6C77.165 38.8267 77.4583 39.0333 77.845 39.22C78.2317 39.4067 78.8317 39.6467 79.645 39.94C80.5383 40.2733 81.245 40.5733 81.765 40.84C82.285 41.1067 82.7517 41.5067 83.165 42.04C83.5783 42.5733 83.785 43.26 83.785 44.1ZM99.4942 41.9C99.5609 41.9 99.6142 41.9267 99.6542 41.98C99.7076 42.02 99.7342 42.0733 99.7342 42.14V44.16C99.7342 44.2267 99.7076 44.2867 99.6542 44.34C99.6142 44.38 99.5609 44.4 99.4942 44.4H98.6342C98.5676 44.4 98.5342 44.4333 98.5342 44.5V47.76C98.5342 47.8267 98.5076 47.8867 98.4542 47.94C98.4142 47.98 98.3609 48 98.2942 48H95.9542C95.8876 48 95.8276 47.98 95.7742 47.94C95.7342 47.8867 95.7142 47.8267 95.7142 47.76V44.5C95.7142 44.4333 95.6809 44.4 95.6142 44.4H89.4742C89.4076 44.4 89.3476 44.38 89.2942 44.34C89.2542 44.2867 89.2342 44.2267 89.2342 44.16V42.56C89.2342 42.48 89.2542 42.38 89.2942 42.26L92.8942 34.18C92.9476 34.06 93.0409 34 93.1742 34H95.6742C95.7676 34 95.8276 34.0267 95.8542 34.08C95.8942 34.12 95.8942 34.1867 95.8542 34.28L92.5142 41.78C92.5009 41.8067 92.5009 41.8333 92.5142 41.86C92.5276 41.8867 92.5476 41.9 92.5742 41.9H95.6142C95.6809 41.9 95.7142 41.8667 95.7142 41.8V39.32C95.7142 39.2533 95.7342 39.2 95.7742 39.16C95.8276 39.1067 95.8876 39.08 95.9542 39.08H98.2942C98.3609 39.08 98.4142 39.1067 98.4542 39.16C98.5076 39.2 98.5342 39.2533 98.5342 39.32V41.8C98.5342 41.8667 98.5676 41.9 98.6342 41.9H99.4942ZM110.104 36.54C110.33 37.0867 110.444 37.74 110.444 38.5V44.52C110.444 45.24 110.257 45.88 109.884 46.44C109.51 46.9867 108.984 47.4133 108.304 47.72C107.624 48.0133 106.844 48.16 105.964 48.16C105.097 48.16 104.33 48.0133 103.664 47.72C102.997 47.4133 102.477 46.9933 102.104 46.46C101.73 45.9133 101.544 45.2867 101.544 44.58V44.02C101.544 43.9533 101.564 43.9 101.604 43.86C101.657 43.8067 101.717 43.78 101.784 43.78H104.124C104.19 43.78 104.244 43.8067 104.284 43.86C104.337 43.9 104.364 43.9533 104.364 44.02V44.2C104.364 44.64 104.51 45.0067 104.804 45.3C105.11 45.5933 105.497 45.74 105.964 45.74C106.457 45.74 106.857 45.5933 107.164 45.3C107.47 44.9933 107.624 44.6067 107.624 44.14V42.28C107.624 42.24 107.61 42.2133 107.584 42.2C107.557 42.1867 107.53 42.1933 107.504 42.22C106.957 42.6867 106.237 42.92 105.344 42.92C104.544 42.92 103.824 42.74 103.184 42.38C102.557 42.0067 102.064 41.4733 101.704 40.78C101.37 40.1533 101.204 39.3867 101.204 38.48C101.204 37.6933 101.337 37 101.604 36.4C101.937 35.6133 102.47 34.9933 103.204 34.54C103.95 34.0867 104.824 33.86 105.824 33.86C106.837 33.86 107.717 34.1 108.464 34.58C109.224 35.0467 109.77 35.7 110.104 36.54ZM105.824 40.56C106.517 40.56 107.017 40.2867 107.324 39.74C107.524 39.3933 107.624 38.9467 107.624 38.4C107.624 37.96 107.537 37.5533 107.364 37.18C107.07 36.5933 106.564 36.3 105.844 36.3C105.15 36.3 104.644 36.5933 104.324 37.18C104.124 37.5533 104.024 37.9733 104.024 38.44C104.024 38.9467 104.137 39.3867 104.364 39.76C104.697 40.2933 105.184 40.56 105.824 40.56ZM113.789 48C113.589 48 113.522 47.9067 113.589 47.72L117.929 36.54C117.955 36.46 117.929 36.42 117.849 36.42H114.109C114.042 36.42 114.009 36.4533 114.009 36.52V37.44C114.009 37.5067 113.982 37.5667 113.929 37.62C113.889 37.66 113.835 37.68 113.769 37.68H111.949C111.882 37.68 111.822 37.66 111.769 37.62C111.729 37.5667 111.709 37.5067 111.709 37.44L111.729 34.24C111.729 34.1733 111.749 34.12 111.789 34.08C111.842 34.0267 111.902 34 111.969 34H120.709C120.775 34 120.829 34.0267 120.869 34.08C120.922 34.12 120.949 34.1733 120.949 34.24V36.26C120.949 36.34 120.929 36.44 120.889 36.56L116.569 47.82C116.529 47.94 116.435 48 116.289 48H113.789ZM120.942 49.96C120.782 49.96 120.709 49.8733 120.722 49.7L121.382 45.06C121.396 44.9133 121.482 44.84 121.642 44.84H123.682C123.856 44.84 123.922 44.9267 123.882 45.1L122.642 49.76C122.602 49.8933 122.509 49.96 122.362 49.96H120.942ZM130.348 48.22C128.881 48.22 127.721 47.8133 126.868 47C126.015 46.1733 125.588 45.0533 125.588 43.64V38.36C125.588 36.9733 126.015 35.8733 126.868 35.06C127.721 34.2467 128.881 33.84 130.348 33.84C131.815 33.84 132.975 34.2467 133.828 35.06C134.695 35.8733 135.128 36.9733 135.128 38.36V43.64C135.128 45.0533 134.695 46.1733 133.828 47C132.975 47.8133 131.815 48.22 130.348 48.22ZM130.348 45.8C130.948 45.8 131.421 45.62 131.768 45.26C132.128 44.8867 132.308 44.3933 132.308 43.78V38.28C132.308 37.6667 132.128 37.18 131.768 36.82C131.421 36.4467 130.948 36.26 130.348 36.26C129.761 36.26 129.288 36.4467 128.928 36.82C128.581 37.18 128.408 37.6667 128.408 38.28V43.78C128.408 44.3933 128.581 44.8867 128.928 45.26C129.288 45.62 129.761 45.8 130.348 45.8ZM141.754 48.22C140.288 48.22 139.128 47.8133 138.274 47C137.421 46.1733 136.994 45.0533 136.994 43.64V38.36C136.994 36.9733 137.421 35.8733 138.274 35.06C139.128 34.2467 140.288 33.84 141.754 33.84C143.221 33.84 144.381 34.2467 145.234 35.06C146.101 35.8733 146.534 36.9733 146.534 38.36V43.64C146.534 45.0533 146.101 46.1733 145.234 47C144.381 47.8133 143.221 48.22 141.754 48.22ZM141.754 45.8C142.354 45.8 142.828 45.62 143.174 45.26C143.534 44.8867 143.714 44.3933 143.714 43.78V38.28C143.714 37.6667 143.534 37.18 143.174 36.82C142.828 36.4467 142.354 36.26 141.754 36.26C141.168 36.26 140.694 36.4467 140.334 36.82C139.988 37.18 139.814 37.6667 139.814 38.28V43.78C139.814 44.3933 139.988 44.8867 140.334 45.26C140.694 45.62 141.168 45.8 141.754 45.8Z" fill="white" fill-opacity="0.53"></path><path d="M60.8398 41.84H147.474V42.84H60.8398V41.84Z" fill="white" fill-opacity="0.53"></path><path d="M209.477 33.98C210.291 33.98 211.004 34.1533 211.617 34.5C212.244 34.8333 212.724 35.3067 213.057 35.92C213.404 36.5333 213.577 37.24 213.577 38.04C213.577 38.84 213.404 39.54 213.057 40.14C212.711 40.74 212.217 41.2067 211.577 41.54C210.951 41.8733 210.224 42.04 209.397 42.04H205.877C205.824 42.04 205.797 42.0667 205.797 42.12V47.8C205.797 47.9333 205.731 48 205.597 48H204.077C203.944 48 203.877 47.9333 203.877 47.8V34.18C203.877 34.0467 203.944 33.98 204.077 33.98H209.477ZM209.217 40.48C209.951 40.48 210.537 40.26 210.977 39.82C211.431 39.38 211.657 38.8 211.657 38.08C211.657 37.3467 211.431 36.76 210.977 36.32C210.537 35.8667 209.951 35.64 209.217 35.64H205.877C205.824 35.64 205.797 35.6667 205.797 35.72V40.4C205.797 40.4533 205.824 40.48 205.877 40.48H209.217ZM220.413 48.18C219.44 48.18 218.58 47.98 217.833 47.58C217.086 47.18 216.506 46.62 216.093 45.9C215.68 45.1667 215.473 44.3267 215.473 43.38V38.62C215.473 37.6733 215.68 36.84 216.093 36.12C216.506 35.4 217.086 34.84 217.833 34.44C218.58 34.04 219.44 33.84 220.413 33.84C221.4 33.84 222.266 34.04 223.013 34.44C223.76 34.84 224.34 35.4 224.753 36.12C225.166 36.84 225.373 37.6733 225.373 38.62V43.38C225.373 44.3267 225.166 45.1667 224.753 45.9C224.34 46.62 223.76 47.18 223.013 47.58C222.266 47.98 221.4 48.18 220.413 48.18ZM220.413 46.52C221.32 46.52 222.053 46.24 222.613 45.68C223.173 45.12 223.453 44.38 223.453 43.46V38.6C223.453 37.6667 223.173 36.92 222.613 36.36C222.053 35.7867 221.32 35.5 220.413 35.5C219.506 35.5 218.773 35.7867 218.213 36.36C217.666 36.92 217.393 37.6667 217.393 38.6V43.46C217.393 44.38 217.666 45.12 218.213 45.68C218.773 46.24 219.506 46.52 220.413 46.52ZM236.274 48C236.168 48 236.094 47.9533 236.054 47.86L233.254 41.88C233.241 41.84 233.214 41.82 233.174 41.82H230.294C230.241 41.82 230.214 41.8467 230.214 41.9V47.8C230.214 47.9333 230.148 48 230.014 48H228.494C228.361 48 228.294 47.9333 228.294 47.8V34.2C228.294 34.0667 228.361 34 228.494 34H233.874C234.674 34 235.374 34.1667 235.974 34.5C236.588 34.8333 237.061 35.3 237.394 35.9C237.728 36.5 237.894 37.1933 237.894 37.98C237.894 38.9133 237.648 39.7067 237.154 40.36C236.674 41 236.001 41.4333 235.134 41.66C235.081 41.6867 235.068 41.72 235.094 41.76L237.994 47.76C238.008 47.7867 238.014 47.82 238.014 47.86C238.014 47.9533 237.961 48 237.854 48H236.274ZM230.294 35.66C230.241 35.66 230.214 35.6867 230.214 35.74V40.22C230.214 40.2733 230.241 40.3 230.294 40.3H233.634C234.341 40.3 234.908 40.0933 235.334 39.68C235.761 39.2533 235.974 38.6933 235.974 38C235.974 37.2933 235.761 36.7267 235.334 36.3C234.908 35.8733 234.341 35.66 233.634 35.66H230.294ZM251.824 48C251.69 48 251.597 47.94 251.544 47.82L249.044 42.28C249.017 42.2267 248.977 42.2 248.924 42.2H247.064C246.997 42.2 246.964 42.2333 246.964 42.3V47.76C246.964 47.8267 246.937 47.8867 246.884 47.94C246.844 47.98 246.79 48 246.724 48H244.384C244.317 48 244.257 47.98 244.204 47.94C244.164 47.8867 244.144 47.8267 244.144 47.76V34.24C244.144 34.1733 244.164 34.12 244.204 34.08C244.257 34.0267 244.317 34 244.384 34H250.104C250.957 34 251.704 34.1733 252.344 34.52C252.997 34.8667 253.497 35.36 253.844 36C254.204 36.64 254.384 37.38 254.384 38.22C254.384 39.1267 254.157 39.9067 253.704 40.56C253.25 41.2 252.617 41.6533 251.804 41.92C251.737 41.9467 251.717 41.9933 251.744 42.06L254.464 47.72C254.49 47.7733 254.504 47.8133 254.504 47.84C254.504 47.9467 254.43 48 254.284 48H251.824ZM247.064 36.42C246.997 36.42 246.964 36.4533 246.964 36.52V39.94C246.964 40.0067 246.997 40.04 247.064 40.04H249.684C250.244 40.04 250.697 39.8733 251.044 39.54C251.404 39.2067 251.584 38.7733 251.584 38.24C251.584 37.7067 251.404 37.2733 251.044 36.94C250.697 36.5933 250.244 36.42 249.684 36.42H247.064ZM265.869 44.1C265.869 45.1667 265.542 46.0467 264.889 46.74C264.236 47.4333 263.342 47.8733 262.209 48.06C262.142 48.0867 262.109 48.1267 262.109 48.18L262.129 49.48C262.129 49.5467 262.102 49.6 262.049 49.64C262.009 49.6933 261.956 49.72 261.889 49.72H259.889C259.822 49.72 259.762 49.6933 259.709 49.64C259.669 49.6 259.649 49.5467 259.649 49.48L259.669 48.16C259.669 48.1067 259.636 48.0667 259.569 48.04C258.436 47.8133 257.542 47.3467 256.889 46.64C256.249 45.9333 255.929 45.0467 255.929 43.98V43.54C255.929 43.4733 255.949 43.42 255.989 43.38C256.042 43.3267 256.102 43.3 256.169 43.3H258.329C258.396 43.3 258.449 43.3267 258.489 43.38C258.542 43.42 258.569 43.4733 258.569 43.54V43.84C258.569 44.3733 258.802 44.8267 259.269 45.2C259.736 45.56 260.376 45.74 261.189 45.74C261.869 45.74 262.369 45.5933 262.689 45.3C263.022 44.9933 263.189 44.62 263.189 44.18C263.189 43.86 263.089 43.5933 262.889 43.38C262.689 43.1533 262.409 42.96 262.049 42.8C261.702 42.6267 261.149 42.3933 260.389 42.1C259.522 41.7933 258.796 41.48 258.209 41.16C257.622 40.84 257.122 40.4067 256.709 39.86C256.309 39.3 256.109 38.6133 256.109 37.8C256.109 36.7733 256.416 35.9267 257.029 35.26C257.656 34.58 258.496 34.14 259.549 33.94C259.616 33.9133 259.649 33.8733 259.649 33.82L259.609 32.36C259.609 32.2933 259.629 32.24 259.669 32.2C259.722 32.1467 259.782 32.12 259.849 32.12H261.849C261.916 32.12 261.969 32.1467 262.009 32.2C262.062 32.24 262.089 32.2933 262.089 32.36L262.069 33.86C262.069 33.9133 262.102 33.9533 262.169 33.98C263.276 34.2067 264.156 34.6933 264.809 35.44C265.462 36.1733 265.789 37.0733 265.789 38.14V38.44C265.789 38.5067 265.762 38.5667 265.709 38.62C265.669 38.66 265.616 38.68 265.549 38.68H263.369C263.302 38.68 263.242 38.66 263.189 38.62C263.149 38.5667 263.129 38.5067 263.129 38.44V38.28C263.129 37.72 262.909 37.2467 262.469 36.86C262.029 36.46 261.429 36.26 260.669 36.26C260.069 36.26 259.602 36.3933 259.269 36.66C258.936 36.9267 258.769 37.2933 258.769 37.76C258.769 38.0933 258.862 38.3733 259.049 38.6C259.249 38.8267 259.542 39.0333 259.929 39.22C260.316 39.4067 260.916 39.6467 261.729 39.94C262.622 40.2733 263.329 40.5733 263.849 40.84C264.369 41.1067 264.836 41.5067 265.249 42.04C265.662 42.5733 265.869 43.26 265.869 44.1ZM276.338 48.22C274.872 48.22 273.712 47.8133 272.858 47C272.005 46.1733 271.578 45.0533 271.578 43.64V38.36C271.578 36.9733 272.005 35.8733 272.858 35.06C273.712 34.2467 274.872 33.84 276.338 33.84C277.805 33.84 278.965 34.2467 279.818 35.06C280.685 35.8733 281.118 36.9733 281.118 38.36V43.64C281.118 45.0533 280.685 46.1733 279.818 47C278.965 47.8133 277.805 48.22 276.338 48.22ZM276.338 45.8C276.938 45.8 277.412 45.62 277.758 45.26C278.118 44.8867 278.298 44.3933 278.298 43.78V38.28C278.298 37.6667 278.118 37.18 277.758 36.82C277.412 36.4467 276.938 36.26 276.338 36.26C275.752 36.26 275.278 36.4467 274.918 36.82C274.572 37.18 274.398 37.6667 274.398 38.28V43.78C274.398 44.3933 274.572 44.8867 274.918 45.26C275.278 45.62 275.752 45.8 276.338 45.8ZM283.104 49.96C282.944 49.96 282.871 49.8733 282.884 49.7L283.544 45.06C283.558 44.9133 283.644 44.84 283.804 44.84H285.844C286.018 44.84 286.084 44.9267 286.044 45.1L284.804 49.76C284.764 49.8933 284.671 49.96 284.524 49.96H283.104ZM292.51 48.22C291.043 48.22 289.883 47.8133 289.03 47C288.177 46.1733 287.75 45.0533 287.75 43.64V38.36C287.75 36.9733 288.177 35.8733 289.03 35.06C289.883 34.2467 291.043 33.84 292.51 33.84C293.977 33.84 295.137 34.2467 295.99 35.06C296.857 35.8733 297.29 36.9733 297.29 38.36V43.64C297.29 45.0533 296.857 46.1733 295.99 47C295.137 47.8133 293.977 48.22 292.51 48.22ZM292.51 45.8C293.11 45.8 293.583 45.62 293.93 45.26C294.29 44.8867 294.47 44.3933 294.47 43.78V38.28C294.47 37.6667 294.29 37.18 293.93 36.82C293.583 36.4467 293.11 36.26 292.51 36.26C291.923 36.26 291.45 36.4467 291.09 36.82C290.743 37.18 290.57 37.6667 290.57 38.28V43.78C290.57 44.3933 290.743 44.8867 291.09 45.26C291.45 45.62 291.923 45.8 292.51 45.8ZM303.916 48.22C302.45 48.22 301.29 47.8133 300.436 47C299.583 46.1733 299.156 45.0533 299.156 43.64V38.36C299.156 36.9733 299.583 35.8733 300.436 35.06C301.29 34.2467 302.45 33.84 303.916 33.84C305.383 33.84 306.543 34.2467 307.396 35.06C308.263 35.8733 308.696 36.9733 308.696 38.36V43.64C308.696 45.0533 308.263 46.1733 307.396 47C306.543 47.8133 305.383 48.22 303.916 48.22ZM303.916 45.8C304.516 45.8 304.99 45.62 305.336 45.26C305.696 44.8867 305.876 44.3933 305.876 43.78V38.28C305.876 37.6667 305.696 37.18 305.336 36.82C304.99 36.4467 304.516 36.26 303.916 36.26C303.33 36.26 302.856 36.4467 302.496 36.82C302.15 37.18 301.976 37.6667 301.976 38.28V43.78C301.976 44.3933 302.15 44.8867 302.496 45.26C302.856 45.62 303.33 45.8 303.916 45.8Z" fill="#0CFF00"></path><rect x="0.5" y="0.5" width="348" height="82" rx="7.5" stroke="#00E7F9" stroke-opacity="0.36"></rect><line x1="173.5" y1="21" x2="173.5" y2="60" stroke="#00E7F9" stroke-opacity="0.4"></line></svg>